<?xml version="1.0" standalone="no"?>
<!DOCTYPE svg PUBLIC "-//W3C//DTD SVG 20010904//EN"
 "http://www.w3.org/TR/2001/REC-SVG-20010904/DTD/svg10.dtd">
<svg version="1.0" xmlns="http://www.w3.org/2000/svg"
 width="672.000000pt" height="672.000000pt" viewBox="0 0 672.000000 672.000000"
 preserveAspectRatio="xMidYMid meet">
<metadata>
Created by potrace 1.11, written by Peter Selinger 2001-2013
</metadata>
<g transform="translate(0.000000,672.000000) scale(0.100000,-0.100000)"
fill="#000000" stroke="none">
<path d="M3350 5113 c0 -1607 -2 -1943 -14 -1961 -3 -5 -8 -34 -12 -63 -4 -30
-9 -56 -13 -59 -3 -3 -6 -9 -6 -15 0 -23 -29 -124 -34 -121 -3 2 -7 -6 -7 -17
-3 -45 -123 -276 -165 -318 -10 -10 -19 -22 -19 -26 -1 -5 -21 -33 -45 -63
-200 -247 -517 -429 -833 -476 -20 -3 -48 -7 -62 -10 -46 -9 -274 -5 -340 5
-435 68 -789 310 -1003 686 -79 139 -144 334 -163 490 -14 111 -8 326 10 415
3 14 8 39 12 55 98 483 504 901 993 1025 113 28 143 32 340 44 54 4 89 13 129
33 180 91 210 336 57 471 -68 60 -130 75 -278 69 -333 -15 -644 -111 -933
-288 -155 -95 -330 -244 -444 -379 -25 -29 -50 -58 -56 -64 -28 -29 -146 -210
-187 -286 -85 -158 -177 -414 -193 -535 -3 -22 -10 -56 -15 -75 -26 -104 -29
-462 -5 -586 2 -12 7 -39 10 -60 25 -154 87 -346 166 -509 300 -620 890 -1026
1587 -1091 52 -5 279 -4 328 1 108 11 147 17 230 35 119 27 108 23 230 64 126
42 293 121 388 182 37 24 70 44 73 44 3 0 17 11 32 25 15 14 31 25 35 25 5 0
14 6 21 13 7 6 30 25 50 41 21 16 51 42 68 58 16 15 35 25 41 21 5 -3 7 -1 4
4 -4 6 0 16 8 23 12 10 14 -111 14 -937 0 -521 1 -960 1 -975 l0 -28 290 0
290 0 0 28 c-1 27 -2 218 -2 237 0 6 1 728 1 1606 1 878 4 1599 7 1602 3 3 7
29 9 59 2 29 8 73 14 98 7 25 14 53 16 64 17 74 93 258 104 252 3 -2 7 7 8 21
0 14 5 28 11 32 5 3 12 16 16 29 4 12 12 22 17 22 5 0 9 4 9 10 0 19 83 129
164 216 48 53 179 167 190 166 3 -1 16 8 29 20 23 21 117 77 167 99 100 46
133 59 197 79 40 12 78 18 84 14 8 -5 9 -3 4 6 -6 10 -1 12 19 8 14 -3 29 -2
31 3 9 14 250 39 285 29 5 -1 62 -4 163 -8 21 -1 36 -5 34 -9 -3 -5 9 -8 26
-7 47 1 188 -37 180 -49 -3 -5 -1 -7 5 -3 32 19 387 -164 364 -189 -4 -5 -2
-5 5 -2 11 7 38 -13 117 -83 68 -61 174 -179 182 -202 3 -10 9 -18 13 -18 5 0
14 -13 21 -30 7 -16 15 -30 19 -30 13 0 82 -140 75 -151 -4 -7 -3 -9 3 -6 13
8 37 -47 29 -68 -3 -8 0 -14 6 -12 16 3 72 -177 84 -267 27 -205 24 -338 -12
-521 -17 -84 -94 -287 -137 -361 -52 -89 -82 -134 -89 -134 -4 0 -8 -5 -8 -12
0 -29 -206 -242 -224 -231 -5 3 -6 2 -3 -4 6 -10 -44 -53 -63 -53 -5 0 -10 -4
-10 -9 0 -12 -111 -81 -210 -130 -47 -23 -85 -42 -85 -41 0 1 -13 -4 -30 -10
-113 -43 -284 -75 -451 -84 -92 -5 -126 -15 -176 -49 -16 -10 -28 -15 -28 -11
0 4 -10 -6 -22 -22 -12 -16 -26 -31 -30 -34 -4 -3 -17 -28 -30 -55 -36 -81
-26 -219 21 -278 41 -52 95 -95 133 -108 24 -7 49 -20 56 -29 8 -8 11 -10 8
-4 -4 8 22 12 87 13 171 4 212 6 217 12 3 4 28 9 55 13 28 4 79 13 115 20 35
8 68 13 71 10 4 -2 9 -1 11 3 3 8 129 53 147 53 33 0 387 179 403 204 5 6 8 7
8 1 0 -7 3 -7 8 0 13 18 121 95 133 95 7 0 9 3 6 7 -4 3 4 14 18 23 14 9 54
45 90 79 l65 63 0 1357 0 1358 -57 54 c-32 30 -92 82 -133 114 -41 33 -76 63
-78 68 -2 4 -9 7 -16 7 -7 0 -21 8 -32 18 -43 37 -347 192 -377 192 -10 0 -17
5 -17 10 0 6 -3 9 -7 8 -5 -1 -33 6 -63 16 -64 21 -114 35 -150 41 -14 3 -36
8 -50 11 -14 3 -27 6 -30 6 -3 1 -21 5 -40 9 -136 32 -487 33 -670 3 -28 -5
-133 -31 -275 -68 -5 -1 -27 -10 -49 -19 -21 -9 -42 -17 -46 -17 -5 0 -41 -15
-82 -34 -40 -18 -80 -36 -88 -40 -31 -13 -127 -69 -182 -107 -32 -21 -62 -39
-67 -39 -5 0 -11 -3 -13 -8 -7 -17 -61 -51 -71 -45 -5 3 -7 1 -4 -4 4 -6 -10
-23 -31 -39 -20 -15 -43 -36 -51 -47 -7 -10 -20 -16 -28 -13 -8 3 -12 2 -9 -3
3 -4 -3 -16 -14 -26 -23 -20 -20 -154 -21 1223 l0 752 -289 0 -290 0 0 -1607z"/>
<path d="M4230 3879 c0 -5 5 -7 10 -4 6 3 10 8 10 11 0 2 -4 4 -10 4 -5 0 -10
-5 -10 -11z"/>
<path d="M4110 3686 c0 -2 7 -7 16 -10 8 -3 12 -2 9 4 -6 10 -25 14 -25 6z"/>
<path d="M4025 1720 c-3 -6 1 -7 9 -4 18 7 21 14 7 14 -6 0 -13 -4 -16 -10z"/>
</g>
</svg>
