<svg width="506" height="115" viewBox="0 0 506 115" fill="none" xmlns="http://www.w3.org/2000/svg">
<path d="M4.28952 112.168C3.44952 112.168 2.73552 112.019 2.14752 111.72C1.56885 111.421 1.06952 111.029 0.649516 110.544L1.89552 109.34C2.23152 109.732 2.60485 110.031 3.01552 110.236C3.43552 110.441 3.89752 110.544 4.40152 110.544C4.97085 110.544 5.40018 110.423 5.68952 110.18C5.97885 109.928 6.12352 109.592 6.12352 109.172C6.12352 108.845 6.03018 108.579 5.84352 108.374C5.65685 108.169 5.30685 108.019 4.79352 107.926L3.86952 107.786C1.91885 107.478 0.943516 106.531 0.943516 104.944C0.943516 104.505 1.02285 104.109 1.18152 103.754C1.34952 103.399 1.58752 103.096 1.89552 102.844C2.20352 102.592 2.57218 102.401 3.00152 102.27C3.44018 102.13 3.93485 102.06 4.48552 102.06C5.22285 102.06 5.86685 102.181 6.41752 102.424C6.96818 102.667 7.43952 103.026 7.83152 103.502L6.57152 104.692C6.32885 104.393 6.03485 104.151 5.68952 103.964C5.34418 103.777 4.91018 103.684 4.38752 103.684C3.85552 103.684 3.45418 103.787 3.18352 103.992C2.92218 104.188 2.79152 104.468 2.79152 104.832C2.79152 105.205 2.89885 105.481 3.11352 105.658C3.32818 105.835 3.67352 105.966 4.14952 106.05L5.05952 106.218C6.04885 106.395 6.77685 106.713 7.24352 107.17C7.71952 107.618 7.95752 108.248 7.95752 109.06C7.95752 109.527 7.87352 109.951 7.70552 110.334C7.54685 110.707 7.30885 111.034 6.99152 111.314C6.68352 111.585 6.30085 111.795 5.84352 111.944C5.39552 112.093 4.87752 112.168 4.28952 112.168ZM12.5821 112.168C12.0408 112.168 11.5601 112.079 11.1401 111.902C10.7201 111.725 10.3654 111.468 10.0761 111.132C9.79611 110.796 9.58144 110.395 9.43211 109.928C9.28278 109.452 9.20811 108.92 9.20811 108.332C9.20811 107.744 9.28278 107.217 9.43211 106.75C9.58144 106.283 9.79611 105.887 10.0761 105.56C10.3654 105.224 10.7201 104.967 11.1401 104.79C11.5601 104.613 12.0408 104.524 12.5821 104.524C13.3194 104.524 13.9261 104.687 14.4021 105.014C14.8874 105.341 15.2374 105.793 15.4521 106.372L13.9821 107.03C13.8981 106.722 13.7394 106.47 13.5061 106.274C13.2821 106.069 12.9741 105.966 12.5821 105.966C12.0781 105.966 11.7001 106.125 11.4481 106.442C11.2054 106.759 11.0841 107.175 11.0841 107.688V109.018C11.0841 109.531 11.2054 109.947 11.4481 110.264C11.7001 110.572 12.0781 110.726 12.5821 110.726C13.0114 110.726 13.3428 110.619 13.5761 110.404C13.8094 110.18 13.9914 109.905 14.1221 109.578L15.4941 110.236C15.2514 110.88 14.8828 111.365 14.3881 111.692C13.8934 112.009 13.2914 112.168 12.5821 112.168ZM16.8758 101.64H18.6678V105.91H18.7378C18.8872 105.518 19.1205 105.191 19.4378 104.93C19.7645 104.659 20.2125 104.524 20.7818 104.524C21.5378 104.524 22.1165 104.771 22.5178 105.266C22.9192 105.761 23.1198 106.465 23.1198 107.38V112H21.3278V107.562C21.3278 107.039 21.2345 106.647 21.0478 106.386C20.8612 106.125 20.5532 105.994 20.1238 105.994C19.9372 105.994 19.7552 106.022 19.5778 106.078C19.4098 106.125 19.2558 106.199 19.1158 106.302C18.9852 106.395 18.8778 106.517 18.7938 106.666C18.7098 106.806 18.6678 106.974 18.6678 107.17V112H16.8758V101.64ZM28.0043 112.168C27.4816 112.168 27.0103 112.079 26.5903 111.902C26.1796 111.725 25.825 111.468 25.5263 111.132C25.237 110.796 25.013 110.395 24.8543 109.928C24.6956 109.452 24.6163 108.92 24.6163 108.332C24.6163 107.744 24.6956 107.217 24.8543 106.75C25.013 106.283 25.237 105.887 25.5263 105.56C25.825 105.224 26.1796 104.967 26.5903 104.79C27.0103 104.613 27.4816 104.524 28.0043 104.524C28.527 104.524 28.9983 104.613 29.4183 104.79C29.8383 104.967 30.193 105.224 30.4823 105.56C30.781 105.887 31.0096 106.283 31.1683 106.75C31.327 107.217 31.4063 107.744 31.4063 108.332C31.4063 108.92 31.327 109.452 31.1683 109.928C31.0096 110.395 30.781 110.796 30.4823 111.132C30.193 111.468 29.8383 111.725 29.4183 111.902C28.9983 112.079 28.527 112.168 28.0043 112.168ZM28.0043 110.726C28.4803 110.726 28.8536 110.581 29.1243 110.292C29.395 110.003 29.5303 109.578 29.5303 109.018V107.66C29.5303 107.109 29.395 106.689 29.1243 106.4C28.8536 106.111 28.4803 105.966 28.0043 105.966C27.5376 105.966 27.169 106.111 26.8983 106.4C26.6276 106.689 26.4923 107.109 26.4923 107.66V109.018C26.4923 109.578 26.6276 110.003 26.8983 110.292C27.169 110.581 27.5376 110.726 28.0043 110.726ZM35.893 112.168C35.3703 112.168 34.899 112.079 34.479 111.902C34.0683 111.725 33.7137 111.468 33.415 111.132C33.1257 110.796 32.9017 110.395 32.743 109.928C32.5843 109.452 32.505 108.92 32.505 108.332C32.505 107.744 32.5843 107.217 32.743 106.75C32.9017 106.283 33.1257 105.887 33.415 105.56C33.7137 105.224 34.0683 104.967 34.479 104.79C34.899 104.613 35.3703 104.524 35.893 104.524C36.4157 104.524 36.887 104.613 37.307 104.79C37.727 104.967 38.0817 105.224 38.371 105.56C38.6697 105.887 38.8983 106.283 39.057 106.75C39.2157 107.217 39.295 107.744 39.295 108.332C39.295 108.92 39.2157 109.452 39.057 109.928C38.8983 110.395 38.6697 110.796 38.371 111.132C38.0817 111.468 37.727 111.725 37.307 111.902C36.887 112.079 36.4157 112.168 35.893 112.168ZM35.893 110.726C36.369 110.726 36.7423 110.581 37.013 110.292C37.2837 110.003 37.419 109.578 37.419 109.018V107.66C37.419 107.109 37.2837 106.689 37.013 106.4C36.7423 106.111 36.369 105.966 35.893 105.966C35.4263 105.966 35.0577 106.111 34.787 106.4C34.5163 106.689 34.381 107.109 34.381 107.66V109.018C34.381 109.578 34.5163 110.003 34.787 110.292C35.0577 110.581 35.4263 110.726 35.893 110.726ZM42.6757 112C42.0597 112 41.607 111.846 41.3177 111.538C41.0283 111.23 40.8837 110.796 40.8837 110.236V101.64H42.6757V110.572H43.6417V112H42.6757ZM51.4575 112.168C50.6175 112.168 49.9035 112.019 49.3155 111.72C48.7368 111.421 48.2375 111.029 47.8175 110.544L49.0635 109.34C49.3995 109.732 49.7728 110.031 50.1835 110.236C50.6035 110.441 51.0655 110.544 51.5695 110.544C52.1388 110.544 52.5682 110.423 52.8575 110.18C53.1468 109.928 53.2915 109.592 53.2915 109.172C53.2915 108.845 53.1982 108.579 53.0115 108.374C52.8248 108.169 52.4748 108.019 51.9615 107.926L51.0375 107.786C49.0868 107.478 48.1115 106.531 48.1115 104.944C48.1115 104.505 48.1908 104.109 48.3495 103.754C48.5175 103.399 48.7555 103.096 49.0635 102.844C49.3715 102.592 49.7402 102.401 50.1695 102.27C50.6082 102.13 51.1028 102.06 51.6535 102.06C52.3908 102.06 53.0348 102.181 53.5855 102.424C54.1362 102.667 54.6075 103.026 54.9995 103.502L53.7395 104.692C53.4968 104.393 53.2028 104.151 52.8575 103.964C52.5122 103.777 52.0782 103.684 51.5555 103.684C51.0235 103.684 50.6222 103.787 50.3515 103.992C50.0902 104.188 49.9595 104.468 49.9595 104.832C49.9595 105.205 50.0668 105.481 50.2815 105.658C50.4962 105.835 50.8415 105.966 51.3175 106.05L52.2275 106.218C53.2168 106.395 53.9448 106.713 54.4115 107.17C54.8875 107.618 55.1255 108.248 55.1255 109.06C55.1255 109.527 55.0415 109.951 54.8735 110.334C54.7148 110.707 54.4768 111.034 54.1595 111.314C53.8515 111.585 53.4688 111.795 53.0115 111.944C52.5635 112.093 52.0455 112.168 51.4575 112.168ZM59.0934 112C58.4774 112 58.0061 111.841 57.6794 111.524C57.3621 111.197 57.2034 110.735 57.2034 110.138V106.12H56.1254V104.692H56.6854C56.9561 104.692 57.1381 104.631 57.2314 104.51C57.3341 104.379 57.3854 104.188 57.3854 103.936V102.69H58.9954V104.692H60.4934V106.12H58.9954V110.572H60.3814V112H59.0934ZM66.4157 110.782H66.3457C66.2804 110.969 66.1917 111.146 66.0797 111.314C65.9771 111.473 65.8417 111.617 65.6737 111.748C65.5151 111.879 65.3191 111.981 65.0857 112.056C64.8617 112.131 64.6004 112.168 64.3017 112.168C63.5457 112.168 62.9671 111.921 62.5657 111.426C62.1644 110.931 61.9637 110.227 61.9637 109.312V104.692H63.7557V109.13C63.7557 109.634 63.8537 110.021 64.0497 110.292C64.2457 110.553 64.5584 110.684 64.9877 110.684C65.1651 110.684 65.3377 110.661 65.5057 110.614C65.6831 110.567 65.8371 110.497 65.9677 110.404C66.0984 110.301 66.2057 110.18 66.2897 110.04C66.3737 109.891 66.4157 109.718 66.4157 109.522V104.692H68.2077V112H66.4157V110.782ZM74.8142 110.782H74.7442C74.6135 111.202 74.3662 111.538 74.0022 111.79C73.6382 112.042 73.2135 112.168 72.7282 112.168C71.8042 112.168 71.0949 111.837 70.6002 111.174C70.1149 110.511 69.8722 109.564 69.8722 108.332C69.8722 107.109 70.1149 106.171 70.6002 105.518C71.0949 104.855 71.8042 104.524 72.7282 104.524C73.2135 104.524 73.6382 104.65 74.0022 104.902C74.3662 105.145 74.6135 105.476 74.7442 105.896H74.8142V101.64H76.6062V112H74.8142V110.782ZM73.3022 110.684C73.7315 110.684 74.0909 110.581 74.3802 110.376C74.6695 110.171 74.8142 109.877 74.8142 109.494V107.17C74.8142 106.815 74.6695 106.531 74.3802 106.316C74.0909 106.101 73.7315 105.994 73.3022 105.994C72.8355 105.994 72.4575 106.153 72.1682 106.47C71.8882 106.778 71.7482 107.193 71.7482 107.716V108.976C71.7482 109.499 71.8882 109.914 72.1682 110.222C72.4575 110.53 72.8355 110.684 73.3022 110.684ZM81.6267 112.168C81.0854 112.168 80.6001 112.079 80.1707 111.902C79.7507 111.715 79.3914 111.459 79.0927 111.132C78.8034 110.796 78.5794 110.395 78.4207 109.928C78.2621 109.452 78.1827 108.92 78.1827 108.332C78.1827 107.753 78.2574 107.231 78.4067 106.764C78.5654 106.297 78.7894 105.901 79.0787 105.574C79.3681 105.238 79.7227 104.981 80.1427 104.804C80.5627 104.617 81.0387 104.524 81.5707 104.524C82.1401 104.524 82.6347 104.622 83.0547 104.818C83.4747 105.014 83.8201 105.28 84.0907 105.616C84.3614 105.952 84.5621 106.344 84.6927 106.792C84.8327 107.231 84.9027 107.702 84.9027 108.206V108.794H80.0447V108.976C80.0447 109.508 80.1941 109.937 80.4927 110.264C80.7914 110.581 81.2347 110.74 81.8227 110.74C82.2707 110.74 82.6347 110.647 82.9147 110.46C83.2041 110.273 83.4607 110.035 83.6847 109.746L84.6507 110.824C84.3521 111.244 83.9414 111.575 83.4187 111.818C82.9054 112.051 82.3081 112.168 81.6267 112.168ZM81.5987 105.868C81.1227 105.868 80.7447 106.027 80.4647 106.344C80.1847 106.661 80.0447 107.072 80.0447 107.576V107.688H83.0407V107.562C83.0407 107.058 82.9147 106.652 82.6627 106.344C82.4201 106.027 82.0654 105.868 81.5987 105.868ZM86.4794 112V104.692H88.2714V105.91H88.3414C88.4907 105.518 88.724 105.191 89.0414 104.93C89.368 104.659 89.816 104.524 90.3854 104.524C91.1414 104.524 91.72 104.771 92.1214 105.266C92.5227 105.761 92.7234 106.465 92.7234 107.38V112H90.9314V107.562C90.9314 107.039 90.838 106.647 90.6514 106.386C90.4647 106.125 90.1567 105.994 89.7274 105.994C89.5407 105.994 89.3587 106.022 89.1814 106.078C89.0134 106.125 88.8594 106.199 88.7194 106.302C88.5887 106.395 88.4814 106.517 88.3974 106.666C88.3134 106.806 88.2714 106.974 88.2714 107.17V112H86.4794ZM96.9918 112C96.3758 112 95.9045 111.841 95.5778 111.524C95.2605 111.197 95.1018 110.735 95.1018 110.138V106.12H94.0238V104.692H94.5838C94.8545 104.692 95.0365 104.631 95.1298 104.51C95.2325 104.379 95.2838 104.188 95.2838 103.936V102.69H96.8938V104.692H98.3918V106.12H96.8938V110.572H98.2798V112H96.9918ZM102.34 112.168C101.64 112.168 101.052 112.051 100.576 111.818C100.1 111.575 99.6802 111.244 99.3162 110.824L100.408 109.76C100.679 110.068 100.973 110.311 101.29 110.488C101.617 110.665 101.99 110.754 102.41 110.754C102.839 110.754 103.147 110.679 103.334 110.53C103.53 110.381 103.628 110.175 103.628 109.914C103.628 109.699 103.558 109.531 103.418 109.41C103.287 109.279 103.059 109.191 102.732 109.144L102.004 109.046C101.211 108.943 100.604 108.719 100.184 108.374C99.7735 108.019 99.5682 107.506 99.5682 106.834C99.5682 106.479 99.6335 106.162 99.7642 105.882C99.8948 105.593 100.081 105.35 100.324 105.154C100.567 104.949 100.856 104.795 101.192 104.692C101.537 104.58 101.92 104.524 102.34 104.524C102.695 104.524 103.007 104.552 103.278 104.608C103.558 104.655 103.81 104.729 104.034 104.832C104.258 104.925 104.463 105.047 104.65 105.196C104.837 105.336 105.019 105.495 105.196 105.672L104.146 106.722C103.931 106.498 103.675 106.311 103.376 106.162C103.077 106.013 102.751 105.938 102.396 105.938C102.004 105.938 101.719 106.008 101.542 106.148C101.374 106.288 101.29 106.47 101.29 106.694C101.29 106.937 101.36 107.123 101.5 107.254C101.649 107.375 101.897 107.464 102.242 107.52L102.984 107.618C104.561 107.842 105.35 108.561 105.35 109.774C105.35 110.129 105.275 110.455 105.126 110.754C104.986 111.043 104.785 111.295 104.524 111.51C104.263 111.715 103.945 111.879 103.572 112C103.208 112.112 102.797 112.168 102.34 112.168Z" fill="#5C5C5C"/>
<path d="M190.594 102.228H194.15C194.785 102.228 195.359 102.331 195.872 102.536C196.395 102.741 196.838 103.049 197.202 103.46C197.576 103.861 197.86 104.37 198.056 104.986C198.262 105.593 198.364 106.302 198.364 107.114C198.364 107.926 198.262 108.64 198.056 109.256C197.86 109.863 197.576 110.371 197.202 110.782C196.838 111.183 196.395 111.487 195.872 111.692C195.359 111.897 194.785 112 194.15 112H190.594V102.228ZM194.15 110.362C194.841 110.362 195.387 110.161 195.788 109.76C196.199 109.349 196.404 108.724 196.404 107.884V106.344C196.404 105.504 196.199 104.883 195.788 104.482C195.387 104.071 194.841 103.866 194.15 103.866H192.442V110.362H194.15ZM203.089 112.168C202.547 112.168 202.062 112.079 201.633 111.902C201.213 111.715 200.853 111.459 200.555 111.132C200.265 110.796 200.041 110.395 199.883 109.928C199.724 109.452 199.645 108.92 199.645 108.332C199.645 107.753 199.719 107.231 199.869 106.764C200.027 106.297 200.251 105.901 200.541 105.574C200.83 105.238 201.185 104.981 201.605 104.804C202.025 104.617 202.501 104.524 203.033 104.524C203.602 104.524 204.097 104.622 204.517 104.818C204.937 105.014 205.282 105.28 205.553 105.616C205.823 105.952 206.024 106.344 206.155 106.792C206.295 107.231 206.365 107.702 206.365 108.206V108.794H201.507V108.976C201.507 109.508 201.656 109.937 201.955 110.264C202.253 110.581 202.697 110.74 203.285 110.74C203.733 110.74 204.097 110.647 204.377 110.46C204.666 110.273 204.923 110.035 205.147 109.746L206.113 110.824C205.814 111.244 205.403 111.575 204.881 111.818C204.367 112.051 203.77 112.168 203.089 112.168ZM203.061 105.868C202.585 105.868 202.207 106.027 201.927 106.344C201.647 106.661 201.507 107.072 201.507 107.576V107.688H204.503V107.562C204.503 107.058 204.377 106.652 204.125 106.344C203.882 106.027 203.527 105.868 203.061 105.868ZM210.335 112.168C209.635 112.168 209.047 112.051 208.571 111.818C208.095 111.575 207.675 111.244 207.311 110.824L208.403 109.76C208.674 110.068 208.968 110.311 209.285 110.488C209.612 110.665 209.985 110.754 210.405 110.754C210.835 110.754 211.143 110.679 211.329 110.53C211.525 110.381 211.623 110.175 211.623 109.914C211.623 109.699 211.553 109.531 211.413 109.41C211.283 109.279 211.054 109.191 210.727 109.144L209.999 109.046C209.206 108.943 208.599 108.719 208.179 108.374C207.769 108.019 207.563 107.506 207.563 106.834C207.563 106.479 207.629 106.162 207.759 105.882C207.89 105.593 208.077 105.35 208.319 105.154C208.562 104.949 208.851 104.795 209.187 104.692C209.533 104.58 209.915 104.524 210.335 104.524C210.69 104.524 211.003 104.552 211.273 104.608C211.553 104.655 211.805 104.729 212.029 104.832C212.253 104.925 212.459 105.047 212.645 105.196C212.832 105.336 213.014 105.495 213.191 105.672L212.141 106.722C211.927 106.498 211.67 106.311 211.371 106.162C211.073 106.013 210.746 105.938 210.391 105.938C209.999 105.938 209.715 106.008 209.537 106.148C209.369 106.288 209.285 106.47 209.285 106.694C209.285 106.937 209.355 107.123 209.495 107.254C209.645 107.375 209.892 107.464 210.237 107.52L210.979 107.618C212.557 107.842 213.345 108.561 213.345 109.774C213.345 110.129 213.271 110.455 213.121 110.754C212.981 111.043 212.781 111.295 212.519 111.51C212.258 111.715 211.941 111.879 211.567 112C211.203 112.112 210.793 112.168 210.335 112.168ZM215.824 103.628C215.45 103.628 215.18 103.544 215.012 103.376C214.853 103.208 214.774 102.993 214.774 102.732V102.452C214.774 102.191 214.853 101.976 215.012 101.808C215.18 101.64 215.45 101.556 215.824 101.556C216.188 101.556 216.454 101.64 216.622 101.808C216.79 101.976 216.874 102.191 216.874 102.452V102.732C216.874 102.993 216.79 103.208 216.622 103.376C216.454 103.544 216.188 103.628 215.824 103.628ZM214.928 104.692H216.72V112H214.928V104.692ZM225.391 112.616C225.391 112.999 225.321 113.335 225.181 113.624C225.05 113.923 224.831 114.17 224.523 114.366C224.215 114.562 223.818 114.711 223.333 114.814C222.847 114.917 222.255 114.968 221.555 114.968C220.939 114.968 220.416 114.926 219.987 114.842C219.557 114.767 219.203 114.655 218.923 114.506C218.652 114.366 218.456 114.189 218.335 113.974C218.213 113.759 218.153 113.517 218.153 113.246C218.153 112.835 218.265 112.513 218.489 112.28C218.722 112.056 219.044 111.911 219.455 111.846V111.692C219.156 111.617 218.923 111.473 218.755 111.258C218.596 111.034 218.517 110.773 218.517 110.474C218.517 110.287 218.554 110.124 218.629 109.984C218.703 109.835 218.801 109.709 218.923 109.606C219.053 109.503 219.198 109.419 219.357 109.354C219.515 109.279 219.683 109.223 219.861 109.186V109.13C219.413 108.925 219.077 108.64 218.853 108.276C218.638 107.912 218.531 107.487 218.531 107.002C218.531 106.255 218.787 105.658 219.301 105.21C219.814 104.753 220.565 104.524 221.555 104.524C221.779 104.524 221.998 104.538 222.213 104.566C222.437 104.594 222.642 104.641 222.829 104.706V104.468C222.829 103.759 223.174 103.404 223.865 103.404H224.999V104.776H223.445V104.972C223.827 105.187 224.112 105.467 224.299 105.812C224.485 106.157 224.579 106.554 224.579 107.002C224.579 107.739 224.322 108.332 223.809 108.78C223.305 109.228 222.553 109.452 221.555 109.452C221.125 109.452 220.752 109.41 220.435 109.326C220.295 109.391 220.173 109.48 220.071 109.592C219.968 109.695 219.917 109.825 219.917 109.984C219.917 110.348 220.234 110.53 220.869 110.53H222.829C223.725 110.53 224.373 110.717 224.775 111.09C225.185 111.454 225.391 111.963 225.391 112.616ZM223.711 112.826C223.711 112.593 223.617 112.411 223.431 112.28C223.244 112.149 222.922 112.084 222.465 112.084H219.973C219.721 112.271 219.595 112.523 219.595 112.84C219.595 113.12 219.711 113.339 219.945 113.498C220.178 113.657 220.575 113.736 221.135 113.736H222.031C222.619 113.736 223.043 113.661 223.305 113.512C223.575 113.363 223.711 113.134 223.711 112.826ZM221.555 108.234C222.432 108.234 222.871 107.861 222.871 107.114V106.876C222.871 106.129 222.432 105.756 221.555 105.756C220.677 105.756 220.239 106.129 220.239 106.876V107.114C220.239 107.861 220.677 108.234 221.555 108.234ZM226.426 112V104.692H228.218V105.91H228.288C228.437 105.518 228.67 105.191 228.988 104.93C229.314 104.659 229.762 104.524 230.332 104.524C231.088 104.524 231.666 104.771 232.068 105.266C232.469 105.761 232.67 106.465 232.67 107.38V112H230.878V107.562C230.878 107.039 230.784 106.647 230.598 106.386C230.411 106.125 230.103 105.994 229.674 105.994C229.487 105.994 229.305 106.022 229.128 106.078C228.96 106.125 228.806 106.199 228.666 106.302C228.535 106.395 228.428 106.517 228.344 106.666C228.26 106.806 228.218 106.974 228.218 107.17V112H226.426ZM241.115 112.168C240.275 112.168 239.561 112.019 238.973 111.72C238.394 111.421 237.895 111.029 237.475 110.544L238.721 109.34C239.057 109.732 239.43 110.031 239.841 110.236C240.261 110.441 240.723 110.544 241.227 110.544C241.796 110.544 242.225 110.423 242.515 110.18C242.804 109.928 242.949 109.592 242.949 109.172C242.949 108.845 242.855 108.579 242.669 108.374C242.482 108.169 242.132 108.019 241.619 107.926L240.695 107.786C238.744 107.478 237.769 106.531 237.769 104.944C237.769 104.505 237.848 104.109 238.007 103.754C238.175 103.399 238.413 103.096 238.721 102.844C239.029 102.592 239.397 102.401 239.827 102.27C240.265 102.13 240.76 102.06 241.311 102.06C242.048 102.06 242.692 102.181 243.243 102.424C243.793 102.667 244.265 103.026 244.657 103.502L243.397 104.692C243.154 104.393 242.86 104.151 242.515 103.964C242.169 103.777 241.735 103.684 241.213 103.684C240.681 103.684 240.279 103.787 240.009 103.992C239.747 104.188 239.617 104.468 239.617 104.832C239.617 105.205 239.724 105.481 239.939 105.658C240.153 105.835 240.499 105.966 240.975 106.05L241.885 106.218C242.874 106.395 243.602 106.713 244.069 107.17C244.545 107.618 244.783 108.248 244.783 109.06C244.783 109.527 244.699 109.951 244.531 110.334C244.372 110.707 244.134 111.034 243.817 111.314C243.509 111.585 243.126 111.795 242.669 111.944C242.221 112.093 241.703 112.168 241.115 112.168ZM248.751 112C248.135 112 247.663 111.841 247.337 111.524C247.019 111.197 246.861 110.735 246.861 110.138V106.12H245.783V104.692H246.343C246.613 104.692 246.795 104.631 246.889 104.51C246.991 104.379 247.043 104.188 247.043 103.936V102.69H248.653V104.692H250.151V106.12H248.653V110.572H250.039V112H248.751ZM256.073 110.782H256.003C255.938 110.969 255.849 111.146 255.737 111.314C255.634 111.473 255.499 111.617 255.331 111.748C255.172 111.879 254.976 111.981 254.743 112.056C254.519 112.131 254.258 112.168 253.959 112.168C253.203 112.168 252.624 111.921 252.223 111.426C251.822 110.931 251.621 110.227 251.621 109.312V104.692H253.413V109.13C253.413 109.634 253.511 110.021 253.707 110.292C253.903 110.553 254.216 110.684 254.645 110.684C254.822 110.684 254.995 110.661 255.163 110.614C255.34 110.567 255.494 110.497 255.625 110.404C255.756 110.301 255.863 110.18 255.947 110.04C256.031 109.891 256.073 109.718 256.073 109.522V104.692H257.865V112H256.073V110.782ZM264.471 110.782H264.401C264.271 111.202 264.023 111.538 263.659 111.79C263.295 112.042 262.871 112.168 262.385 112.168C261.461 112.168 260.752 111.837 260.257 111.174C259.772 110.511 259.529 109.564 259.529 108.332C259.529 107.109 259.772 106.171 260.257 105.518C260.752 104.855 261.461 104.524 262.385 104.524C262.871 104.524 263.295 104.65 263.659 104.902C264.023 105.145 264.271 105.476 264.401 105.896H264.471V101.64H266.263V112H264.471V110.782ZM262.959 110.684C263.389 110.684 263.748 110.581 264.037 110.376C264.327 110.171 264.471 109.877 264.471 109.494V107.17C264.471 106.815 264.327 106.531 264.037 106.316C263.748 106.101 263.389 105.994 262.959 105.994C262.493 105.994 262.115 106.153 261.825 106.47C261.545 106.778 261.405 107.193 261.405 107.716V108.976C261.405 109.499 261.545 109.914 261.825 110.222C262.115 110.53 262.493 110.684 262.959 110.684ZM271.284 112.168C270.743 112.168 270.257 112.079 269.828 111.902C269.408 111.715 269.049 111.459 268.75 111.132C268.461 110.796 268.237 110.395 268.078 109.928C267.919 109.452 267.84 108.92 267.84 108.332C267.84 107.753 267.915 107.231 268.064 106.764C268.223 106.297 268.447 105.901 268.736 105.574C269.025 105.238 269.38 104.981 269.8 104.804C270.22 104.617 270.696 104.524 271.228 104.524C271.797 104.524 272.292 104.622 272.712 104.818C273.132 105.014 273.477 105.28 273.748 105.616C274.019 105.952 274.219 106.344 274.35 106.792C274.49 107.231 274.56 107.702 274.56 108.206V108.794H269.702V108.976C269.702 109.508 269.851 109.937 270.15 110.264C270.449 110.581 270.892 110.74 271.48 110.74C271.928 110.74 272.292 110.647 272.572 110.46C272.861 110.273 273.118 110.035 273.342 109.746L274.308 110.824C274.009 111.244 273.599 111.575 273.076 111.818C272.563 112.051 271.965 112.168 271.284 112.168ZM271.256 105.868C270.78 105.868 270.402 106.027 270.122 106.344C269.842 106.661 269.702 107.072 269.702 107.576V107.688H272.698V107.562C272.698 107.058 272.572 106.652 272.32 106.344C272.077 106.027 271.723 105.868 271.256 105.868ZM276.137 112V104.692H277.929V105.91H277.999C278.148 105.518 278.381 105.191 278.699 104.93C279.025 104.659 279.473 104.524 280.043 104.524C280.799 104.524 281.377 104.771 281.779 105.266C282.18 105.761 282.381 106.465 282.381 107.38V112H280.589V107.562C280.589 107.039 280.495 106.647 280.309 106.386C280.122 106.125 279.814 105.994 279.385 105.994C279.198 105.994 279.016 106.022 278.839 106.078C278.671 106.125 278.517 106.199 278.377 106.302C278.246 106.395 278.139 106.517 278.055 106.666C277.971 106.806 277.929 106.974 277.929 107.17V112H276.137ZM286.649 112C286.033 112 285.562 111.841 285.235 111.524C284.918 111.197 284.759 110.735 284.759 110.138V106.12H283.681V104.692H284.241C284.512 104.692 284.694 104.631 284.787 104.51C284.89 104.379 284.941 104.188 284.941 103.936V102.69H286.551V104.692H288.049V106.12H286.551V110.572H287.937V112H286.649ZM291.997 112.168C291.297 112.168 290.709 112.051 290.233 111.818C289.757 111.575 289.337 111.244 288.973 110.824L290.065 109.76C290.336 110.068 290.63 110.311 290.947 110.488C291.274 110.665 291.647 110.754 292.067 110.754C292.497 110.754 292.805 110.679 292.991 110.53C293.187 110.381 293.285 110.175 293.285 109.914C293.285 109.699 293.215 109.531 293.075 109.41C292.945 109.279 292.716 109.191 292.389 109.144L291.661 109.046C290.868 108.943 290.261 108.719 289.841 108.374C289.431 108.019 289.225 107.506 289.225 106.834C289.225 106.479 289.291 106.162 289.421 105.882C289.552 105.593 289.739 105.35 289.981 105.154C290.224 104.949 290.513 104.795 290.849 104.692C291.195 104.58 291.577 104.524 291.997 104.524C292.352 104.524 292.665 104.552 292.935 104.608C293.215 104.655 293.467 104.729 293.691 104.832C293.915 104.925 294.121 105.047 294.307 105.196C294.494 105.336 294.676 105.495 294.853 105.672L293.803 106.722C293.589 106.498 293.332 106.311 293.033 106.162C292.735 106.013 292.408 105.938 292.053 105.938C291.661 105.938 291.377 106.008 291.199 106.148C291.031 106.288 290.947 106.47 290.947 106.694C290.947 106.937 291.017 107.123 291.157 107.254C291.307 107.375 291.554 107.464 291.899 107.52L292.641 107.618C294.219 107.842 295.007 108.561 295.007 109.774C295.007 110.129 294.933 110.455 294.783 110.754C294.643 111.043 294.443 111.295 294.181 111.51C293.92 111.715 293.603 111.879 293.229 112C292.865 112.112 292.455 112.168 291.997 112.168Z" fill="#5C5C5C"/>
<path d="M380.13 106.988L379.122 104.958H379.08V112H377.33V102.228H379.36L382.3 107.24L383.308 109.27H383.35V102.228H385.1V112H383.07L380.13 106.988ZM390.178 112.168C389.655 112.168 389.184 112.079 388.764 111.902C388.353 111.725 387.999 111.468 387.7 111.132C387.411 110.796 387.187 110.395 387.028 109.928C386.869 109.452 386.79 108.92 386.79 108.332C386.79 107.744 386.869 107.217 387.028 106.75C387.187 106.283 387.411 105.887 387.7 105.56C387.999 105.224 388.353 104.967 388.764 104.79C389.184 104.613 389.655 104.524 390.178 104.524C390.701 104.524 391.172 104.613 391.592 104.79C392.012 104.967 392.367 105.224 392.656 105.56C392.955 105.887 393.183 106.283 393.342 106.75C393.501 107.217 393.58 107.744 393.58 108.332C393.58 108.92 393.501 109.452 393.342 109.928C393.183 110.395 392.955 110.796 392.656 111.132C392.367 111.468 392.012 111.725 391.592 111.902C391.172 112.079 390.701 112.168 390.178 112.168ZM390.178 110.726C390.654 110.726 391.027 110.581 391.298 110.292C391.569 110.003 391.704 109.578 391.704 109.018V107.66C391.704 107.109 391.569 106.689 391.298 106.4C391.027 106.111 390.654 105.966 390.178 105.966C389.711 105.966 389.343 106.111 389.072 106.4C388.801 106.689 388.666 107.109 388.666 107.66V109.018C388.666 109.578 388.801 110.003 389.072 110.292C389.343 110.581 389.711 110.726 390.178 110.726ZM395.169 112V104.692H396.961V105.91H397.031C397.18 105.518 397.413 105.191 397.731 104.93C398.057 104.659 398.505 104.524 399.075 104.524C399.831 104.524 400.409 104.771 400.811 105.266C401.212 105.761 401.413 106.465 401.413 107.38V112H399.621V107.562C399.621 107.039 399.527 106.647 399.341 106.386C399.154 106.125 398.846 105.994 398.417 105.994C398.23 105.994 398.048 106.022 397.871 106.078C397.703 106.125 397.549 106.199 397.409 106.302C397.278 106.395 397.171 106.517 397.087 106.666C397.003 106.806 396.961 106.974 396.961 107.17V112H395.169ZM403.175 108.626V106.848H407.179V108.626H403.175ZM409.144 102.228H412.7C413.335 102.228 413.909 102.331 414.422 102.536C414.945 102.741 415.388 103.049 415.752 103.46C416.125 103.861 416.41 104.37 416.606 104.986C416.811 105.593 416.914 106.302 416.914 107.114C416.914 107.926 416.811 108.64 416.606 109.256C416.41 109.863 416.125 110.371 415.752 110.782C415.388 111.183 414.945 111.487 414.422 111.692C413.909 111.897 413.335 112 412.7 112H409.144V102.228ZM412.7 110.362C413.391 110.362 413.937 110.161 414.338 109.76C414.749 109.349 414.954 108.724 414.954 107.884V106.344C414.954 105.504 414.749 104.883 414.338 104.482C413.937 104.071 413.391 103.866 412.7 103.866H410.992V110.362H412.7ZM421.638 112.168C421.097 112.168 420.612 112.079 420.182 111.902C419.762 111.715 419.403 111.459 419.104 111.132C418.815 110.796 418.591 110.395 418.432 109.928C418.274 109.452 418.194 108.92 418.194 108.332C418.194 107.753 418.269 107.231 418.418 106.764C418.577 106.297 418.801 105.901 419.09 105.574C419.38 105.238 419.734 104.981 420.154 104.804C420.574 104.617 421.05 104.524 421.582 104.524C422.152 104.524 422.646 104.622 423.066 104.818C423.486 105.014 423.832 105.28 424.102 105.616C424.373 105.952 424.574 106.344 424.704 106.792C424.844 107.231 424.914 107.702 424.914 108.206V108.794H420.056V108.976C420.056 109.508 420.206 109.937 420.504 110.264C420.803 110.581 421.246 110.74 421.834 110.74C422.282 110.74 422.646 110.647 422.926 110.46C423.216 110.273 423.472 110.035 423.696 109.746L424.662 110.824C424.364 111.244 423.953 111.575 423.43 111.818C422.917 112.051 422.32 112.168 421.638 112.168ZM421.61 105.868C421.134 105.868 420.756 106.027 420.476 106.344C420.196 106.661 420.056 107.072 420.056 107.576V107.688H423.052V107.562C423.052 107.058 422.926 106.652 422.674 106.344C422.432 106.027 422.077 105.868 421.61 105.868ZM428.885 112.168C428.185 112.168 427.597 112.051 427.121 111.818C426.645 111.575 426.225 111.244 425.861 110.824L426.953 109.76C427.224 110.068 427.518 110.311 427.835 110.488C428.162 110.665 428.535 110.754 428.955 110.754C429.384 110.754 429.692 110.679 429.879 110.53C430.075 110.381 430.173 110.175 430.173 109.914C430.173 109.699 430.103 109.531 429.963 109.41C429.832 109.279 429.604 109.191 429.277 109.144L428.549 109.046C427.756 108.943 427.149 108.719 426.729 108.374C426.318 108.019 426.113 107.506 426.113 106.834C426.113 106.479 426.178 106.162 426.309 105.882C426.44 105.593 426.626 105.35 426.869 105.154C427.112 104.949 427.401 104.795 427.737 104.692C428.082 104.58 428.465 104.524 428.885 104.524C429.24 104.524 429.552 104.552 429.823 104.608C430.103 104.655 430.355 104.729 430.579 104.832C430.803 104.925 431.008 105.047 431.195 105.196C431.382 105.336 431.564 105.495 431.741 105.672L430.691 106.722C430.476 106.498 430.22 106.311 429.921 106.162C429.622 106.013 429.296 105.938 428.941 105.938C428.549 105.938 428.264 106.008 428.087 106.148C427.919 106.288 427.835 106.47 427.835 106.694C427.835 106.937 427.905 107.123 428.045 107.254C428.194 107.375 428.442 107.464 428.787 107.52L429.529 107.618C431.106 107.842 431.895 108.561 431.895 109.774C431.895 110.129 431.82 110.455 431.671 110.754C431.531 111.043 431.33 111.295 431.069 111.51C430.808 111.715 430.49 111.879 430.117 112C429.753 112.112 429.342 112.168 428.885 112.168ZM434.373 103.628C434 103.628 433.729 103.544 433.561 103.376C433.403 103.208 433.323 102.993 433.323 102.732V102.452C433.323 102.191 433.403 101.976 433.561 101.808C433.729 101.64 434 101.556 434.373 101.556C434.737 101.556 435.003 101.64 435.171 101.808C435.339 101.976 435.423 102.191 435.423 102.452V102.732C435.423 102.993 435.339 103.208 435.171 103.376C435.003 103.544 434.737 103.628 434.373 103.628ZM433.477 104.692H435.269V112H433.477V104.692ZM443.941 112.616C443.941 112.999 443.871 113.335 443.731 113.624C443.6 113.923 443.381 114.17 443.073 114.366C442.765 114.562 442.368 114.711 441.883 114.814C441.397 114.917 440.805 114.968 440.105 114.968C439.489 114.968 438.966 114.926 438.537 114.842C438.107 114.767 437.753 114.655 437.473 114.506C437.202 114.366 437.006 114.189 436.885 113.974C436.763 113.759 436.703 113.517 436.703 113.246C436.703 112.835 436.815 112.513 437.039 112.28C437.272 112.056 437.594 111.911 438.005 111.846V111.692C437.706 111.617 437.473 111.473 437.305 111.258C437.146 111.034 437.067 110.773 437.067 110.474C437.067 110.287 437.104 110.124 437.179 109.984C437.253 109.835 437.351 109.709 437.473 109.606C437.603 109.503 437.748 109.419 437.907 109.354C438.065 109.279 438.233 109.223 438.411 109.186V109.13C437.963 108.925 437.627 108.64 437.403 108.276C437.188 107.912 437.081 107.487 437.081 107.002C437.081 106.255 437.337 105.658 437.851 105.21C438.364 104.753 439.115 104.524 440.105 104.524C440.329 104.524 440.548 104.538 440.763 104.566C440.987 104.594 441.192 104.641 441.379 104.706V104.468C441.379 103.759 441.724 103.404 442.415 103.404H443.549V104.776H441.995V104.972C442.377 105.187 442.662 105.467 442.849 105.812C443.035 106.157 443.129 106.554 443.129 107.002C443.129 107.739 442.872 108.332 442.359 108.78C441.855 109.228 441.103 109.452 440.105 109.452C439.675 109.452 439.302 109.41 438.985 109.326C438.845 109.391 438.723 109.48 438.621 109.592C438.518 109.695 438.467 109.825 438.467 109.984C438.467 110.348 438.784 110.53 439.419 110.53H441.379C442.275 110.53 442.923 110.717 443.325 111.09C443.735 111.454 443.941 111.963 443.941 112.616ZM442.261 112.826C442.261 112.593 442.167 112.411 441.981 112.28C441.794 112.149 441.472 112.084 441.015 112.084H438.523C438.271 112.271 438.145 112.523 438.145 112.84C438.145 113.12 438.261 113.339 438.495 113.498C438.728 113.657 439.125 113.736 439.685 113.736H440.581C441.169 113.736 441.593 113.661 441.855 113.512C442.125 113.363 442.261 113.134 442.261 112.826ZM440.105 108.234C440.982 108.234 441.421 107.861 441.421 107.114V106.876C441.421 106.129 440.982 105.756 440.105 105.756C439.227 105.756 438.789 106.129 438.789 106.876V107.114C438.789 107.861 439.227 108.234 440.105 108.234ZM444.975 112V104.692H446.767V105.91H446.837C446.987 105.518 447.22 105.191 447.537 104.93C447.864 104.659 448.312 104.524 448.881 104.524C449.637 104.524 450.216 104.771 450.617 105.266C451.019 105.761 451.219 106.465 451.219 107.38V112H449.427V107.562C449.427 107.039 449.334 106.647 449.147 106.386C448.961 106.125 448.653 105.994 448.223 105.994C448.037 105.994 447.855 106.022 447.677 106.078C447.509 106.125 447.355 106.199 447.215 106.302C447.085 106.395 446.977 106.517 446.893 106.666C446.809 106.806 446.767 106.974 446.767 107.17V112H444.975ZM459.665 112.168C458.825 112.168 458.111 112.019 457.523 111.72C456.944 111.421 456.445 111.029 456.025 110.544L457.271 109.34C457.607 109.732 457.98 110.031 458.391 110.236C458.811 110.441 459.273 110.544 459.777 110.544C460.346 110.544 460.775 110.423 461.065 110.18C461.354 109.928 461.499 109.592 461.499 109.172C461.499 108.845 461.405 108.579 461.219 108.374C461.032 108.169 460.682 108.019 460.169 107.926L459.245 107.786C457.294 107.478 456.319 106.531 456.319 104.944C456.319 104.505 456.398 104.109 456.557 103.754C456.725 103.399 456.963 103.096 457.271 102.844C457.579 102.592 457.947 102.401 458.377 102.27C458.815 102.13 459.31 102.06 459.861 102.06C460.598 102.06 461.242 102.181 461.793 102.424C462.343 102.667 462.815 103.026 463.207 103.502L461.947 104.692C461.704 104.393 461.41 104.151 461.065 103.964C460.719 103.777 460.285 103.684 459.763 103.684C459.231 103.684 458.829 103.787 458.559 103.992C458.297 104.188 458.167 104.468 458.167 104.832C458.167 105.205 458.274 105.481 458.489 105.658C458.703 105.835 459.049 105.966 459.525 106.05L460.435 106.218C461.424 106.395 462.152 106.713 462.619 107.17C463.095 107.618 463.333 108.248 463.333 109.06C463.333 109.527 463.249 109.951 463.081 110.334C462.922 110.707 462.684 111.034 462.367 111.314C462.059 111.585 461.676 111.795 461.219 111.944C460.771 112.093 460.253 112.168 459.665 112.168ZM467.3 112C466.684 112 466.213 111.841 465.886 111.524C465.569 111.197 465.41 110.735 465.41 110.138V106.12H464.332V104.692H464.892C465.163 104.692 465.345 104.631 465.438 104.51C465.541 104.379 465.592 104.188 465.592 103.936V102.69H467.202V104.692H468.7V106.12H467.202V110.572H468.588V112H467.3ZM474.736 110.782H474.666C474.535 111.202 474.288 111.538 473.924 111.79C473.56 112.042 473.135 112.168 472.65 112.168C471.726 112.168 471.017 111.837 470.522 111.174C470.037 110.511 469.794 109.564 469.794 108.332C469.794 107.109 470.037 106.171 470.522 105.518C471.017 104.855 471.726 104.524 472.65 104.524C473.135 104.524 473.56 104.65 473.924 104.902C474.288 105.145 474.535 105.476 474.666 105.896H474.736V101.64H476.528V112H474.736V110.782ZM473.224 110.684C473.653 110.684 474.013 110.581 474.302 110.376C474.591 110.171 474.736 109.877 474.736 109.494V107.17C474.736 106.815 474.591 106.531 474.302 106.316C474.013 106.101 473.653 105.994 473.224 105.994C472.757 105.994 472.379 106.153 472.09 106.47C471.81 106.778 471.67 107.193 471.67 107.716V108.976C471.67 109.499 471.81 109.914 472.09 110.222C472.379 110.53 472.757 110.684 473.224 110.684ZM481.549 112.168C481.007 112.168 480.522 112.079 480.093 111.902C479.673 111.715 479.313 111.459 479.015 111.132C478.725 110.796 478.501 110.395 478.343 109.928C478.184 109.452 478.105 108.92 478.105 108.332C478.105 107.753 478.179 107.231 478.329 106.764C478.487 106.297 478.711 105.901 479.001 105.574C479.29 105.238 479.645 104.981 480.065 104.804C480.485 104.617 480.961 104.524 481.493 104.524C482.062 104.524 482.557 104.622 482.977 104.818C483.397 105.014 483.742 105.28 484.013 105.616C484.283 105.952 484.484 106.344 484.615 106.792C484.755 107.231 484.825 107.702 484.825 108.206V108.794H479.967V108.976C479.967 109.508 480.116 109.937 480.415 110.264C480.713 110.581 481.157 110.74 481.745 110.74C482.193 110.74 482.557 110.647 482.837 110.46C483.126 110.273 483.383 110.035 483.607 109.746L484.573 110.824C484.274 111.244 483.863 111.575 483.341 111.818C482.827 112.051 482.23 112.168 481.549 112.168ZM481.521 105.868C481.045 105.868 480.667 106.027 480.387 106.344C480.107 106.661 479.967 107.072 479.967 107.576V107.688H482.963V107.562C482.963 107.058 482.837 106.652 482.585 106.344C482.342 106.027 481.987 105.868 481.521 105.868ZM486.401 112V104.692H488.193V105.91H488.263C488.413 105.518 488.646 105.191 488.963 104.93C489.29 104.659 489.738 104.524 490.307 104.524C491.063 104.524 491.642 104.771 492.043 105.266C492.445 105.761 492.645 106.465 492.645 107.38V112H490.853V107.562C490.853 107.039 490.76 106.647 490.573 106.386C490.387 106.125 490.079 105.994 489.649 105.994C489.463 105.994 489.281 106.022 489.103 106.078C488.935 106.125 488.781 106.199 488.641 106.302C488.511 106.395 488.403 106.517 488.319 106.666C488.235 106.806 488.193 106.974 488.193 107.17V112H486.401ZM496.914 112C496.298 112 495.826 111.841 495.5 111.524C495.182 111.197 495.024 110.735 495.024 110.138V106.12H493.946V104.692H494.506C494.776 104.692 494.958 104.631 495.052 104.51C495.154 104.379 495.206 104.188 495.206 103.936V102.69H496.816V104.692H498.314V106.12H496.816V110.572H498.202V112H496.914ZM502.262 112.168C501.562 112.168 500.974 112.051 500.498 111.818C500.022 111.575 499.602 111.244 499.238 110.824L500.33 109.76C500.601 110.068 500.895 110.311 501.212 110.488C501.539 110.665 501.912 110.754 502.332 110.754C502.761 110.754 503.069 110.679 503.256 110.53C503.452 110.381 503.55 110.175 503.55 109.914C503.55 109.699 503.48 109.531 503.34 109.41C503.209 109.279 502.981 109.191 502.654 109.144L501.926 109.046C501.133 108.943 500.526 108.719 500.106 108.374C499.695 108.019 499.49 107.506 499.49 106.834C499.49 106.479 499.555 106.162 499.686 105.882C499.817 105.593 500.003 105.35 500.246 105.154C500.489 104.949 500.778 104.795 501.114 104.692C501.459 104.58 501.842 104.524 502.262 104.524C502.617 104.524 502.929 104.552 503.2 104.608C503.48 104.655 503.732 104.729 503.956 104.832C504.18 104.925 504.385 105.047 504.572 105.196C504.759 105.336 504.941 105.495 505.118 105.672L504.068 106.722C503.853 106.498 503.597 106.311 503.298 106.162C502.999 106.013 502.673 105.938 502.318 105.938C501.926 105.938 501.641 106.008 501.464 106.148C501.296 106.288 501.212 106.47 501.212 106.694C501.212 106.937 501.282 107.123 501.422 107.254C501.571 107.375 501.819 107.464 502.164 107.52L502.906 107.618C504.483 107.842 505.272 108.561 505.272 109.774C505.272 110.129 505.197 110.455 505.048 110.754C504.908 111.043 504.707 111.295 504.446 111.51C504.185 111.715 503.867 111.879 503.494 112C503.13 112.112 502.719 112.168 502.262 112.168Z" fill="#5C5C5C"/>
<circle cx="57" cy="46" r="46" fill="#198875"/>
<circle cx="249" cy="46" r="46" fill="#198875"/>
<circle cx="441" cy="46" r="46" fill="#198875"/>
<path d="M42.7396 37.3299C42.7853 43.5967 43.5669 53.1184 49.6264 56.6207C52.1051 58.0533 55.0278 57.8763 57.7879 57.8763C61.7948 57.8763 65.4795 54.491 66.0255 50.5329C66.3944 47.858 66.8602 44.973 65.6069 42.4665C64.0031 39.2588 61.3959 37.0136 58.8342 34.5904C56.6384 32.5133 50.0255 30.1009 47.0581 31.6987C43.6812 33.517 42.0547 38.083 42.0547 41.7816" stroke="white" stroke-linecap="round" stroke-linejoin="round"/>
<path d="M55.0674 58.9036C55.0674 63.0165 54.8636 67.1417 54.6869 71.2504C54.5149 75.2488 53.9511 79.2172 53.7737 83.2168C53.6651 85.6656 53.7598 88.1895 53.3552 90.6173C53.233 91.3504 52.4167 91.2214 52.2517 90.5983C51.9347 89.4006 51.9854 88.2117 51.9854 86.9836" stroke="white" stroke-linecap="round" stroke-linejoin="round"/>
<path d="M56.437 73.2861C59.7584 68.6182 65.6633 66.9215 70.1346 63.5266C72.7574 61.5352 75.822 59.276 77.6683 56.5066" stroke="white" stroke-linecap="round" stroke-linejoin="round"/>
<path d="M55.7519 72.2588C51.5203 73.0648 50.0698 70.4351 46.9816 67.7881C44.4919 65.6541 39.7178 62.5098 38.6299 59.2461" stroke="white" stroke-linecap="round" stroke-linejoin="round"/>
<path d="M49.9304 43.4939C49.6752 43.8449 48.3378 45.2061 49.4168 45.2061C49.8337 45.2061 50.6424 45.3616 50.9387 45.0158C51.6846 44.1456 51.6426 43.6647 51.6426 42.4666" stroke="white" stroke-linecap="round" stroke-linejoin="round"/>
<path d="M58.8342 43.8363C57.578 42.1935 53.8314 38.6028 53.6976 43.1514C53.6156 45.9401 57.4644 44.3477 57.4644 42.1241" stroke="white" stroke-linecap="round" stroke-linejoin="round"/>
<path d="M51.9852 49.6577C54.7036 50.2013 57.2739 52.9299 60.2038 51.8835C61.4441 51.4406 61.2311 50.1918 61.2311 49.0489C61.2311 47.4681 60.1211 47.09 58.7579 46.6518C56.6165 45.9635 52.665 45.4857 52.0042 48.4591C51.699 49.8325 50.9776 51.7123 53.0125 51.7123" stroke="white" stroke-linecap="round" stroke-linejoin="round"/>
<path d="M242.059 34.9094C239.342 38.4461 234.654 43.9098 238.253 48.4091C239.734 50.2603 241.837 51.3379 243.743 52.6923C246.088 54.3584 248.292 55.6515 250.878 56.8828C252.861 57.8273 254.656 58.3017 256.872 58.3017C258.825 58.3017 259.653 58.1481 260.916 56.6043C261.939 55.3539 262.249 52.938 262.335 51.3795C262.455 49.2233 262.661 47.1021 262.574 44.9347C262.404 40.6937 259.275 35.9267 255.718 33.6629C254.118 32.6444 252.661 32.7612 250.838 32.7612C248.132 32.7612 245.49 32.4655 242.961 33.4773C241.718 33.9743 238.882 34.5802 238.24 35.8642" stroke="white" stroke-linecap="round" stroke-linejoin="round"/>
<path d="M239.434 37.2964C238.322 33.9612 237.286 30.3371 237.286 26.7937C237.286 26.2652 236.926 24.1148 237.339 23.7437C237.93 23.2112 240.65 25.2207 241.211 25.4676C243.508 26.4786 245.403 28.4516 245.879 24.6455C246.086 22.989 246.927 21.0297 248.266 19.9776C249.564 18.9576 249.714 19.7232 250.759 20.8263C251.524 21.6337 252.276 22.4907 253.146 23.1868C253.615 23.5622 254.336 23.8706 254.657 24.4068C254.696 24.4713 254.986 23.3417 255.069 23.0939C255.337 22.2883 255.678 21.3776 256.196 20.6937C257.718 18.682 259.437 18.8611 260.784 21.065C262.221 23.4171 261.657 26.4184 261.155 28.9287C260.917 30.1194 260.2 31.1277 259.843 32.2705C259.627 32.9609 259.236 33.2578 259.007 33.7159" stroke="white" stroke-linecap="round" stroke-linejoin="round"/>
<path d="M239.434 29.6581C239.562 30.2426 239.831 31.7799 240.747 31.7799C241.242 31.7799 241.747 30.4955 241.927 30.1355C242.132 29.7267 242.086 29.1522 242.06 28.7033C242.031 28.2136 241.344 28.4513 241.344 28.942" stroke="white" stroke-linecap="round" stroke-linejoin="round"/>
<path d="M250.414 27.2713C247.075 29.4177 250.057 30.5481 252.032 29.1809C253.963 27.8444 251.507 26.2789 251.369 26.5552" stroke="white" stroke-linecap="round" stroke-linejoin="round"/>
<path d="M258.53 27.2712C260.328 27.8707 258.705 26.3164 257.575 26.3164" stroke="white" stroke-linecap="round" stroke-linejoin="round"/>
<path d="M244.446 40.3995C244.728 41.6534 245.195 41.7989 246.223 42.2561C247.273 42.7225 247.98 41.4696 247.775 40.5454C247.669 40.0675 246.457 39.8335 245.998 39.9354C245.433 40.061 244.679 41.1156 245.64 41.1156" stroke="white" stroke-linecap="round" stroke-linejoin="round"/>
<path d="M255.188 40.877C254.967 42.0096 254.749 42.7866 256.143 42.7866C256.927 42.7866 257.336 42.5461 257.336 41.7125C257.336 40.3505 255.166 40.3996 254.233 40.3996" stroke="white" stroke-linecap="round" stroke-linejoin="round"/>
<path d="M248.266 49.9475C249.973 50.3133 251.475 52.2698 253.093 52.3345C253.551 52.3528 255.508 52.5969 255.652 51.9499C255.805 51.261 256.088 50.773 256.381 50.1862" stroke="white" stroke-linecap="round" stroke-linejoin="round"/>
<path d="M248.027 49.7087C250.89 49.7087 253.74 49.47 256.62 49.47" stroke="white" stroke-linecap="round" stroke-linejoin="round"/>
<path d="M252.324 58.063C252.324 60.9104 252.169 63.8244 252.337 66.6693C252.521 69.8043 253.517 72.6922 253.517 75.8459C253.517 77.99 252.801 79.8114 252.801 81.9326" stroke="white" stroke-linecap="round" stroke-linejoin="round"/>
<path d="M241.343 52.0957C239.162 53.0002 238.91 54.1258 238.293 56.2066C238.037 57.0729 238.218 58.7009 239.434 58.5272C239.926 58.4569 239.977 57.8927 240.137 57.4929C240.307 57.0668 240.582 58.3226 240.627 58.7792C240.753 60.0342 242.172 60.6059 243.253 60.0655C244.918 59.2329 245.077 58.0502 246.608 59.734C247.825 61.0727 248.77 61.8531 249.99 60.2114C251.089 58.731 251.775 58.8894 253.159 59.9727C254.402 60.9453 255.579 61.1662 257.097 61.1662" stroke="white" stroke-linecap="round" stroke-linejoin="round"/>
<path d="M263.542 54.4827C265.824 55.053 265.232 59.0869 263.423 60.092C262.141 60.8042 260.255 60.4501 258.769 60.4501" stroke="white" stroke-linecap="round" stroke-linejoin="round"/>
<path d="M238.002 58.7793C235.879 61.4926 234.068 64.581 233.719 68.0752C233.551 69.7553 233.755 71.2927 233.175 72.9154C232.368 75.1756 231.692 77.7828 232.87 79.9039C233.488 81.0161 233.293 82.4704 233.706 83.6568C234.144 84.9163 234.392 85.6986 235.018 86.8261C235.456 87.6137 237.359 88.5572 238.241 88.802C238.862 88.9745 241.466 89.5657 241.821 88.8551" stroke="white" stroke-linecap="round" stroke-linejoin="round"/>
<path d="M253.04 69.0432C253.46 71.1948 253.515 74.1862 252.562 76.2041C251.963 77.4722 251.218 78.5539 250.533 79.7713C249.99 80.7379 249.802 81.5349 249.114 82.4102C248.452 83.2533 247.076 84.6081 246.064 84.9828C244.933 85.4019 244.449 86.4233 243.492 87.0383C242.801 87.4826 241.847 88.6574 241.821 89.5711C241.808 90.0346 242.009 91.6252 241.821 91.7194" stroke="white" stroke-linecap="round" stroke-linejoin="round"/>
<path d="M254.949 61.6436C255.416 64.0269 255.741 66.3958 255.957 68.8045C256.09 70.2843 256.02 72.179 256.514 73.5916C257.244 75.6771 257.41 77.9807 257.8 80.1293C257.983 81.1363 258.509 82.1623 259.484 82.5958C259.991 82.8209 260.837 82.8875 261.394 82.8875C262.19 82.8875 262.831 83.1453 262.588 82.1715" stroke="white" stroke-linecap="round" stroke-linejoin="round"/>
<path d="M265.69 56.6309C267.781 60.8124 268.316 64.6424 268.316 69.2685C268.316 72.4061 267.247 75.2223 266.075 78.087C265.468 79.5714 265.452 81.0811 265.452 82.6488C265.452 83.2313 265.755 85.0242 265.399 85.4601C264.963 85.9927 264.16 85.0777 264.02 84.7971" stroke="white" stroke-linecap="round" stroke-linejoin="round"/>
<path d="M254.71 70.4753C253.88 73.5761 252.998 76.655 252.085 79.7315C251.757 80.8359 251.361 82.1406 250.759 83.1263C250.03 84.318 249.503 86.9454 247.788 86.9454" stroke="white" stroke-linecap="round" stroke-linejoin="round"/>
<path d="M239.434 65.9402C238.794 68.4823 237.851 71.0366 237.286 73.5785C237.102 74.4068 236.545 75.1107 236.331 75.9654" stroke="white" stroke-linecap="round" stroke-linejoin="round"/>
<path d="M236.092 74.772C236.562 75.906 238.006 78.947 236.331 79.7846" stroke="white" stroke-linecap="round" stroke-linejoin="round"/>
<path d="M236.092 81.2166C236.806 82.4361 237.286 83.161 237.286 84.5583" stroke="white" stroke-linecap="round" stroke-linejoin="round"/>
<path d="M238.002 85.752C238.77 86.5046 239.633 87.1447 240.389 87.9002" stroke="white" stroke-linecap="round" stroke-linejoin="round"/>
<path d="M237.047 59.7339C234.524 57.692 232.367 55.2879 229.899 53.1831C228.461 51.9566 226.66 50.4182 225.828 48.7539" stroke="white" stroke-linecap="round" stroke-linejoin="round"/>
<path d="M229.131 39.8398C228.08 41.8634 226.768 43.7921 225.312 45.5433C224.679 46.3056 224.264 47.3435 223.445 47.9469C222.679 48.5121 220.927 44.1512 220.62 43.7793" stroke="white" stroke-linecap="round" stroke-linejoin="round"/>
<path d="M265.929 58.3018C267.534 55.2022 269.64 52.594 271.897 49.9607C273.364 48.2483 275.087 46.4202 275.716 44.2188" stroke="white" stroke-linecap="round" stroke-linejoin="round"/>
<path d="M274.284 48.0378C274.284 44.5369 274.284 41.036 274.284 37.5352" stroke="white" stroke-linecap="round" stroke-linejoin="round"/>
<path d="M276.671 44.9348C277.85 43.7207 279.033 42.3588 279.774 40.877" stroke="white" stroke-linecap="round" stroke-linejoin="round"/>
<path d="M275.955 44.4573C275.713 42.9452 275.77 40.3182 276.671 38.9673" stroke="white" stroke-linecap="round" stroke-linejoin="round"/>
<path d="M222.725 47.083C220.895 47.083 219.065 47.083 217.235 47.083" stroke="white" stroke-linecap="round" stroke-linejoin="round"/>
<path d="M224.158 51.1408C223.855 48.8566 223.442 46.768 223.442 44.4573C223.442 43.4705 223.237 42.2404 223.68 41.3542" stroke="white" stroke-linecap="round" stroke-linejoin="round"/>
<path d="M431.585 35.8644C434.186 36.9876 435.531 38.2513 438.401 38.2513C440.888 38.2513 442.402 36.3573 443.639 34.4322C444.234 33.5073 444.582 32.2758 445.482 31.6209C446.372 30.9742 448.432 31.3291 449.487 31.3291C450.681 31.3291 452.214 33.2899 452.338 34.4057C452.421 35.1504 452.829 35.7742 452.829 36.5805C452.829 37.4976 452.942 38.4234 453.081 39.3255C453.554 42.4008 453.836 45.5174 455.216 48.2766" stroke="white" stroke-linecap="round" stroke-linejoin="round"/>
<path d="M430.869 35.6257C432.804 37.3194 431.744 40.4019 432.433 42.6673C432.735 43.6567 432.972 44.6573 433.256 45.651C433.454 46.3462 433.984 46.9445 434.21 47.6799C434.994 50.2261 438.828 52.5435 441.252 53.2893C442.992 53.8246 444.371 54.0054 446.198 54.0054C448.158 54.0054 449.445 53.3213 451.158 52.4406C452.552 51.7234 453.385 50.9893 453.837 49.5232C454.051 48.8267 454.26 47.4417 454.977 47.0832" stroke="white" stroke-linecap="round" stroke-linejoin="round"/>
<path d="M438.269 42.7864C438.391 42.8766 440.244 44.1839 439.807 43.6219C439.474 43.1934 438.997 43.0373 438.627 42.6671C438.09 42.1302 439.618 42.5477 440.178 42.5477" stroke="white" stroke-linecap="round" stroke-linejoin="round"/>
<path d="M446.861 41.1157C446.813 41.3722 446.335 42.9462 446.676 43.2109C446.928 43.4074 447.291 41.1684 447.326 40.8902C447.521 39.3286 447.438 41.2352 447.339 41.8318" stroke="white" stroke-linecap="round" stroke-linejoin="round"/>
<path d="M444.713 48.9926C446.532 48.9503 447.747 48.2685 449.195 47.3218C449.551 47.0887 450.426 46.5455 450.866 46.8974C451.897 47.7226 451.946 49.4344 451.874 50.6635C451.8 51.922 449.061 51.6709 448.346 51.4326C447.233 51.0615 445.954 50.0429 445.429 48.9926" stroke="white" stroke-linecap="round" stroke-linejoin="round"/>
<path d="M442.087 55.1987C444.3 59.7951 444.892 65.6485 445.244 70.661C445.439 73.4573 445.429 81.8715 445.429 79.0684" stroke="white" stroke-linecap="round" stroke-linejoin="round"/>
<path d="M446.146 68.3272C448.515 63.8418 452.845 61.1663 457.842 61.1663" stroke="white" stroke-linecap="round" stroke-linejoin="round"/>
<path d="M442.326 65.4626C440.81 65.4979 439.616 66.0198 438.268 66.6561C437.512 67.0135 436.555 66.9234 435.881 67.3722" stroke="white" stroke-linecap="round" stroke-linejoin="round"/>
<path d="M444.952 76.2041C444.723 77.3673 444.3 78.6992 443.811 79.7846C443.621 80.2074 443.223 80.3782 443.042 80.7393" stroke="white" stroke-linecap="round" stroke-linejoin="round"/>
<path d="M448.532 78.3523C449.75 78.8572 450.457 79.392 451.277 80.3945C451.823 81.0613 452.363 81.694 453.306 81.694" stroke="white" stroke-linecap="round" stroke-linejoin="round"/>
<path d="M434.688 30.1355C435.357 29.6429 437.371 28.378 438.082 29.6581C438.666 30.7083 438.507 31.8162 438.507 32.9998" stroke="white" stroke-linecap="round" stroke-linejoin="round"/>
<path d="M438.984 34.6709C439.833 35.7567 440.01 35.6257 438.746 35.6257" stroke="white" stroke-linecap="round" stroke-linejoin="round"/>
</svg>
