<svg width="90" height="54" viewBox="0 0 90 54" fill="none" xmlns="http://www.w3.org/2000/svg">
<path d="M50.1087 33.6691C48.6372 33.6683 47.1991 33.2312 45.976 32.4132C44.7529 31.5952 43.7997 30.4329 43.237 29.0733C42.6743 27.7137 42.5273 26.2178 42.8146 24.7747C43.1019 23.3315 43.8105 22.006 44.851 20.9655C45.8915 19.925 47.217 19.2164 48.6601 18.9291C50.1033 18.6418 51.5992 18.7889 52.9588 19.3516C54.3184 19.9143 55.4806 20.8674 56.2987 22.0905C57.1167 23.3136 57.5538 24.7517 57.5546 26.2232V33.7038" stroke="white" stroke-width="3.47593" stroke-miterlimit="10" stroke-linecap="round"/>
<path d="M24.7666 2.0997V33.3787" stroke="white" stroke-width="3.47593" stroke-linecap="round" stroke-linejoin="round"/>
<path d="M36.1912 18.9549L32.2688 23.9521C31.668 24.717 31.3515 25.6669 31.3736 26.6393C31.3958 27.6117 31.7551 28.5463 32.3902 29.283L36.1912 33.7038" stroke="white" stroke-width="3.47593" stroke-linecap="round" stroke-linejoin="round"/>
<path d="M65.4292 2.0997V33.7385" stroke="white" stroke-width="3.47593" stroke-linecap="round" stroke-linejoin="round"/>
<path d="M80.707 33.6951C82.181 33.6943 83.6217 33.2565 84.8469 32.437C86.0722 31.6176 87.027 30.4532 87.5907 29.0913C88.1543 27.7293 88.3016 26.2308 88.0138 24.7851C87.726 23.3395 87.0162 22.0116 85.9739 20.9693C84.9316 19.927 83.6037 19.2171 82.158 18.9294C80.7124 18.6416 79.2139 18.7888 77.8519 19.3525C76.4899 19.9162 75.3256 20.871 74.5062 22.0963C73.6867 23.3215 73.2489 24.7622 73.248 26.2362V51.7076" stroke="white" stroke-width="3.47593" stroke-miterlimit="10" stroke-linecap="round"/>
<path d="M9.45895 18.7079C7.98371 18.7079 6.5416 19.1453 5.31498 19.9649C4.08837 20.7845 3.13233 21.9495 2.56778 23.3124C2.00323 24.6754 1.85552 26.1751 2.14332 27.622C2.43113 29.0689 3.14153 30.3979 4.18468 31.4411C5.22783 32.4842 6.55689 33.1947 8.00378 33.4825C9.45067 33.7703 10.9504 33.6226 12.3134 33.058C13.6763 32.4935 14.8412 31.5374 15.6608 30.3108C16.4804 29.0842 16.9179 27.6421 16.9179 26.1668V2" stroke="#FDBB44" stroke-width="3.47593" stroke-miterlimit="10" stroke-linecap="round"/>
</svg>
