<svg width="359" height="309" viewBox="0 0 359 309" fill="none" xmlns="http://www.w3.org/2000/svg">
<path d="M116 78.04C112.605 78.038 109.287 77.0296 106.465 75.1422C103.643 73.2547 101.444 70.573 100.145 67.436C98.8471 64.299 98.5079 60.8475 99.1707 57.5178C99.8336 54.1881 101.469 51.1296 103.869 48.729C106.27 46.3283 109.328 44.6932 112.658 44.0303C115.988 43.3675 119.439 43.7068 122.576 45.0051C125.713 46.3034 128.395 48.5025 130.282 51.3245C132.17 54.1466 133.178 57.4649 133.18 60.8599V78.1199" stroke="#198875" stroke-width="8.02" stroke-miterlimit="10" stroke-linecap="round"/>
<path d="M57.5303 5.19995V77.36" stroke="#198875" stroke-width="8.02" stroke-linecap="round" stroke-linejoin="round"/>
<path d="M83.8899 44.0898L74.8399 55.6199C73.4535 57.3847 72.7234 59.5764 72.7745 61.8201C72.8256 64.0637 73.6547 66.22 75.1199 67.9199L83.8899 78.1199" stroke="#198875" stroke-width="8.02" stroke-linecap="round" stroke-linejoin="round"/>
<path d="M151.35 5.19995V78.2" stroke="#198875" stroke-width="8.02" stroke-linecap="round" stroke-linejoin="round"/>
<path d="M186.6 78.1001C190.004 78.1001 193.331 77.0908 196.161 75.1997C198.992 73.3087 201.198 70.6208 202.5 67.4761C203.803 64.3314 204.144 60.871 203.479 57.5326C202.815 54.1942 201.176 51.1277 198.769 48.7209C196.363 46.314 193.296 44.6749 189.958 44.0109C186.619 43.3468 183.159 43.6876 180.014 44.9901C176.869 46.2927 174.182 48.4986 172.291 51.3288C170.399 54.1589 169.39 57.4864 169.39 60.8902V119.66" stroke="#198875" stroke-width="8.02" stroke-miterlimit="10" stroke-linecap="round"/>
<path d="M22.21 43.55C18.8062 43.55 15.4788 44.5594 12.6486 46.4504C9.81848 48.3415 7.61262 51.0294 6.31004 54.1741C5.00746 57.3188 4.66664 60.7791 5.33069 64.1176C5.99474 67.456 7.63384 70.5225 10.0407 72.9293C12.4476 75.3362 15.5141 76.9752 18.8525 77.6393C22.1909 78.3033 25.6513 77.9626 28.796 76.66C31.9407 75.3575 34.6285 73.1516 36.5196 70.3214C38.4107 67.4912 39.42 64.1638 39.42 60.76V5" stroke="#198875" stroke-width="8.02" stroke-miterlimit="10" stroke-linecap="round"/>
<path d="M191.885 170.04C188.49 170.038 185.172 169.03 182.35 167.142C179.528 165.255 177.328 162.573 176.03 159.436C174.732 156.299 174.393 152.847 175.056 149.518C175.718 146.188 177.353 143.13 179.754 140.729C182.155 138.328 185.213 136.693 188.543 136.03C191.873 135.368 195.324 135.707 198.461 137.005C201.598 138.303 204.28 140.502 206.167 143.325C208.055 146.147 209.063 149.465 209.065 152.86V170.12" stroke="#198875" stroke-opacity="0.19" stroke-width="8.02" stroke-miterlimit="10" stroke-linecap="round"/>
<path d="M133.415 97.2V169.36" stroke="#198875" stroke-opacity="0.19" stroke-width="8.02" stroke-linecap="round" stroke-linejoin="round"/>
<path d="M159.775 136.09L150.725 147.62C149.338 149.385 148.608 151.576 148.659 153.82C148.71 156.064 149.539 158.22 151.005 159.92L159.775 170.12" stroke="#198875" stroke-opacity="0.19" stroke-width="8.02" stroke-linecap="round" stroke-linejoin="round"/>
<path d="M227.235 97.2V170.2" stroke="#198875" stroke-opacity="0.19" stroke-width="8.02" stroke-linecap="round" stroke-linejoin="round"/>
<path d="M262.485 170.1C265.889 170.1 269.216 169.091 272.046 167.2C274.876 165.309 277.082 162.621 278.385 159.476C279.687 156.331 280.028 152.871 279.364 149.533C278.7 146.194 277.061 143.128 274.654 140.721C272.247 138.314 269.181 136.675 265.842 136.011C262.504 135.347 259.044 135.688 255.899 136.99C252.754 138.293 250.066 140.499 248.175 143.329C246.284 146.159 245.275 149.486 245.275 152.89V211.66" stroke="#198875" stroke-opacity="0.19" stroke-width="8.02" stroke-miterlimit="10" stroke-linecap="round"/>
<path d="M98.0948 135.55C94.691 135.55 91.3636 136.559 88.5334 138.45C85.7032 140.341 83.4974 143.029 82.1948 146.174C80.8922 149.319 80.5514 152.779 81.2155 156.118C81.8795 159.456 83.5186 162.522 85.9255 164.929C88.3323 167.336 91.3989 168.975 94.7373 169.639C98.0757 170.303 101.536 169.963 104.681 168.66C107.825 167.357 110.513 165.152 112.404 162.321C114.295 159.491 115.305 156.164 115.305 152.76V97" stroke="#198875" stroke-opacity="0.19" stroke-width="8.02" stroke-miterlimit="10" stroke-linecap="round"/>
<path d="M267.164 262.76C263.769 262.758 260.451 261.75 257.629 259.862C254.807 257.975 252.608 255.293 251.309 252.156C250.011 249.019 249.672 245.567 250.335 242.238C250.998 238.908 252.633 235.85 255.033 233.449C257.434 231.048 260.493 229.413 263.822 228.75C267.152 228.087 270.603 228.427 273.74 229.725C276.877 231.023 279.559 233.222 281.447 236.045C283.334 238.867 284.342 242.185 284.344 245.58V262.84" stroke="#198875" stroke-opacity="0.05" stroke-width="8.02" stroke-miterlimit="10" stroke-linecap="round"/>
<path d="M208.694 189.92V262.08" stroke="#198875" stroke-opacity="0.05" stroke-width="8.02" stroke-linecap="round" stroke-linejoin="round"/>
<path d="M235.054 228.81L226.004 240.34C224.618 242.105 223.887 244.296 223.939 246.54C223.99 248.784 224.819 250.94 226.284 252.64L235.054 262.84" stroke="#198875" stroke-opacity="0.05" stroke-width="8.02" stroke-linecap="round" stroke-linejoin="round"/>
<path d="M302.514 189.92V262.92" stroke="#198875" stroke-opacity="0.05" stroke-width="8.02" stroke-linecap="round" stroke-linejoin="round"/>
<path d="M337.764 262.82C341.168 262.82 344.495 261.811 347.326 259.92C350.156 258.029 352.362 255.341 353.664 252.196C354.967 249.051 355.308 245.591 354.644 242.253C353.979 238.914 352.34 235.848 349.934 233.441C347.527 231.034 344.46 229.395 341.122 228.731C337.783 228.067 334.323 228.408 331.178 229.71C328.034 231.013 325.346 233.219 323.455 236.049C321.564 238.879 320.554 242.206 320.554 245.61V304.38" stroke="#198875" stroke-opacity="0.05" stroke-width="8.02" stroke-miterlimit="10" stroke-linecap="round"/>
<path d="M173.374 228.27C169.97 228.27 166.643 229.279 163.813 231.17C160.983 233.061 158.777 235.749 157.474 238.894C156.172 242.039 155.831 245.499 156.495 248.838C157.159 252.176 158.798 255.242 161.205 257.649C163.612 260.056 166.678 261.695 170.017 262.359C173.355 263.023 176.815 262.683 179.96 261.38C183.105 260.077 185.793 257.872 187.684 255.041C189.575 252.211 190.584 248.884 190.584 245.48V189.72" stroke="#198875" stroke-opacity="0.05" stroke-width="8.02" stroke-miterlimit="10" stroke-linecap="round"/>
</svg>
