<svg width="29" height="29" viewBox="0 0 29 29" fill="none" xmlns="http://www.w3.org/2000/svg">
<path fill-rule="evenodd" clip-rule="evenodd" d="M5.18326 3H24.0166C25.3167 3 26.3707 4.05399 26.3707 5.35416V24.1875C26.3707 25.4876 25.3167 26.5416 24.0166 26.5416H5.18326C3.8831 26.5416 2.8291 25.4876 2.8291 24.1875V5.35416C2.8291 4.05399 3.8831 3 5.18326 3ZM5.18318 5.35511V24.1884H24.0165V5.35511H5.18318ZM13.5794 14.7767H15.777V21.834H18.1311V14.7767H20.4646V12.4225H18.1311V11.2402C18.1311 10.5902 18.6581 10.0632 19.3082 10.0632H20.4853V7.709H19.3082C17.358 7.709 15.777 9.28999 15.777 11.2402V12.4225H13.5794V14.7767Z" fill="white"/>
</svg>
