<svg width="29" height="29" viewBox="0 0 29 29" fill="none" xmlns="http://www.w3.org/2000/svg">
<path fill-rule="evenodd" clip-rule="evenodd" d="M19.3082 3H9.89159C5.99108 3 2.8291 6.16198 2.8291 10.0625V19.4791C2.8291 23.3796 5.99108 26.5416 9.89159 26.5416H19.3082C23.2087 26.5416 26.3707 23.3796 26.3707 19.4791V10.0625C26.3707 6.16198 23.2087 3 19.3082 3ZM5.18327 10.0634C5.18327 7.4631 7.29125 5.35511 9.89159 5.35511H19.3082C21.9086 5.35511 24.0166 7.4631 24.0166 10.0634V19.4801C24.0166 22.0804 21.9086 24.1884 19.3082 24.1884H9.89159C7.29125 24.1884 5.18327 22.0804 5.18327 19.4801V10.0634ZM14.5999 20.6572C11.3495 20.6572 8.71451 18.0222 8.71451 14.7718C8.71451 11.5213 11.3495 8.88635 14.5999 8.88635C17.8503 8.88635 20.4853 11.5213 20.4853 14.7718C20.4853 18.0222 17.8503 20.6572 14.5999 20.6572ZM14.6 18.3027C16.5503 18.3027 18.1313 16.7217 18.1313 14.7715C18.1313 12.8212 16.5503 11.2402 14.6 11.2402C12.6498 11.2402 11.0688 12.8212 11.0688 14.7715C11.0688 16.7217 12.6498 18.3027 14.6 18.3027ZM21.6624 8.88608C21.6624 9.53616 21.1354 10.0632 20.4853 10.0632C19.8352 10.0632 19.3082 9.53616 19.3082 8.88608C19.3082 8.236 19.8352 7.709 20.4853 7.709C21.1354 7.709 21.6624 8.236 21.6624 8.88608Z" fill="white"/>
</svg>
