<svg width="21" height="20" viewBox="0 0 21 20" fill="none" xmlns="http://www.w3.org/2000/svg">
<g clip-path="url(#clip0)">
<path d="M20.9949 19.9998V19.999H21.0001V12.664C21.0001 9.07569 20.189 6.31152 15.7842 6.31152C13.6667 6.31152 12.2457 7.41819 11.6656 8.46736H11.6044V6.64652H7.42798V19.999H11.7767V13.3874C11.7767 11.6465 12.1232 9.96319 14.3869 9.96319C16.6172 9.96319 16.6505 11.9499 16.6505 13.499V19.9998H20.9949Z" fill="white"/>
<path d="M0.346436 6.64746H4.70044V20H0.346436V6.64746Z" fill="white"/>
<path d="M2.52175 0C1.12962 0 0 1.07583 0 2.40167C0 3.7275 1.12962 4.82583 2.52175 4.82583C3.91387 4.82583 5.0435 3.7275 5.0435 2.40167C5.04262 1.07583 3.913 0 2.52175 0V0Z" fill="white"/>
</g>
<defs>
<clipPath id="clip0">
<rect width="21" height="20" fill="white"/>
</clipPath>
</defs>
</svg>
