<svg width="241" height="238" viewBox="0 0 241 238" fill="none" xmlns="http://www.w3.org/2000/svg">
<path d="M204.194 89.8277C192.829 92.7445 180.77 91.027 170.671 85.053C160.572 79.079 153.26 69.3378 150.344 57.9725C147.427 46.6072 149.144 34.5487 155.118 24.4498C161.092 14.3508 170.833 7.03863 182.199 4.12184C193.564 1.20506 205.623 2.92259 215.721 8.8966C225.82 14.8706 233.133 24.6117 236.049 35.977C238.966 47.3424 237.249 59.4009 231.275 69.4998C225.301 79.5988 215.56 86.9109 204.194 89.8277L204.194 89.8277Z" stroke="#F4F4F4" stroke-width="5.46624" stroke-linecap="round"/>
<path d="M57.9725 233.125C46.6072 236.042 34.5487 234.324 24.4498 228.35C14.3508 222.376 7.03863 212.635 4.12184 201.27C1.20506 189.905 2.92259 177.846 8.8966 167.747C14.8706 157.648 24.6117 150.336 35.977 147.419C47.3424 144.502 59.4009 146.22 69.4998 152.194C79.5988 158.168 86.9109 167.909 89.8277 179.274C92.7445 190.64 91.027 202.698 85.053 212.797C79.079 222.896 69.3378 230.208 57.9725 233.125L57.9725 233.125Z" stroke="#F4F4F4" stroke-width="5.46624" stroke-linecap="round"/>
<path d="M204.194 233.125C192.829 236.042 180.77 234.324 170.671 228.35C160.572 222.376 153.26 212.635 150.344 201.27C147.427 189.905 149.144 177.846 155.118 167.747C161.092 157.648 170.833 150.336 182.199 147.419C193.564 144.502 205.623 146.22 215.721 152.194C225.82 158.168 233.133 167.909 236.049 179.274C238.966 190.64 237.249 202.698 231.275 212.797C225.301 222.896 215.56 230.208 204.194 233.125L204.194 233.125Z" stroke="#F4F4F4" stroke-width="5.46624" stroke-linecap="round"/>
<path d="M32.1502 48.8788H30.7655V42.5197H33.781C34.0725 42.5197 34.3367 42.5683 34.5736 42.6655C34.8105 42.7627 35.0109 42.9024 35.1749 43.0846C35.345 43.2607 35.4755 43.4733 35.5666 43.7223C35.6578 43.9713 35.7033 44.2477 35.7033 44.5513C35.7033 44.9826 35.6061 45.3591 35.4118 45.681C35.2235 46.0029 34.935 46.2368 34.5463 46.3825L35.7944 48.8788H34.2547L33.1433 46.5465H32.1502V48.8788ZM33.6079 45.3804C33.8144 45.3804 33.9754 45.3288 34.0908 45.2255C34.2122 45.1162 34.273 44.9583 34.273 44.7518V44.3509C34.273 44.1444 34.2122 43.9895 34.0908 43.8863C33.9754 43.777 33.8144 43.7223 33.6079 43.7223H32.1502V45.3804H33.6079ZM38.6932 48.9881C38.3287 48.9881 38.0038 48.9304 37.7183 48.815C37.4329 48.6935 37.1899 48.5265 36.9895 48.3139C36.7952 48.0953 36.6463 47.8311 36.5431 47.5213C36.4459 47.2116 36.3973 46.8654 36.3973 46.4827C36.3973 46.1062 36.4459 45.7661 36.5431 45.4624C36.6403 45.1526 36.783 44.8884 36.9713 44.6698C37.1656 44.4511 37.4025 44.2841 37.6819 44.1687C37.9613 44.0472 38.2801 43.9865 38.6385 43.9865C39.0333 43.9865 39.3704 44.0533 39.6497 44.1869C39.9352 44.3205 40.166 44.4997 40.3421 44.7244C40.5243 44.9492 40.6549 45.2103 40.7339 45.5079C40.8189 45.7995 40.8614 46.1062 40.8614 46.4281V46.8289H37.7912V46.9018C37.7912 47.2177 37.8763 47.4697 38.0463 47.658C38.2164 47.8402 38.4836 47.9313 38.848 47.9313C39.1274 47.9313 39.3552 47.8766 39.5313 47.7673C39.7074 47.6519 39.8714 47.5153 40.0233 47.3573L40.6974 48.1955C40.4849 48.4445 40.2055 48.6389 39.8593 48.7786C39.5192 48.9183 39.1305 48.9881 38.6932 48.9881ZM38.6658 44.9795C38.3925 44.9795 38.1769 45.0706 38.019 45.2528C37.8671 45.429 37.7912 45.6658 37.7912 45.9635V46.0363H39.4675V45.9543C39.4675 45.6628 39.4007 45.429 39.2671 45.2528C39.1396 45.0706 38.9391 44.9795 38.6658 44.9795ZM46.2413 49.225C46.2413 49.4801 46.1958 49.7048 46.1047 49.8991C46.0196 50.0935 45.8769 50.2575 45.6765 50.3911C45.4761 50.5308 45.2088 50.6341 44.8748 50.7009C44.5468 50.7737 44.1399 50.8102 43.654 50.8102C43.241 50.8102 42.8887 50.7829 42.5972 50.7282C42.3117 50.6796 42.0779 50.6067 41.8957 50.5095C41.7195 50.4184 41.589 50.303 41.5039 50.1634C41.425 50.0297 41.3855 49.8749 41.3855 49.6987C41.3855 49.4315 41.4644 49.2219 41.6224 49.0701C41.7803 48.9183 41.9989 48.8241 42.2783 48.7877V48.6875C42.0475 48.645 41.8744 48.5478 41.759 48.3959C41.6436 48.238 41.5859 48.0558 41.5859 47.8493C41.5859 47.7218 41.6102 47.6124 41.6588 47.5213C41.7135 47.4242 41.7803 47.3422 41.8592 47.2754C41.9443 47.2025 42.0414 47.1448 42.1508 47.1023C42.2601 47.0597 42.3694 47.0263 42.4787 47.002V46.9656C42.1872 46.832 41.9716 46.6498 41.8319 46.419C41.6922 46.1821 41.6224 45.9088 41.6224 45.599C41.6224 45.1132 41.7894 44.7244 42.1234 44.4329C42.4636 44.1353 42.9798 43.9865 43.6722 43.9865C43.988 43.9865 44.2583 44.0169 44.483 44.0776V43.8954C44.483 43.6403 44.5438 43.4581 44.6652 43.3488C44.7928 43.2334 44.972 43.1757 45.2027 43.1757H45.9589V44.1778H44.9021V44.2325C45.1815 44.3661 45.388 44.5513 45.5216 44.7882C45.6552 45.019 45.722 45.2893 45.722 45.599C45.722 46.0789 45.552 46.4645 45.2119 46.7561C44.8778 47.0415 44.3646 47.1842 43.6722 47.1842C43.3624 47.1842 43.08 47.1508 42.8249 47.084C42.6852 47.1751 42.6154 47.3027 42.6154 47.4667C42.6154 47.5821 42.6579 47.6732 42.7429 47.74C42.834 47.8007 42.9828 47.8311 43.1893 47.8311H44.5741C45.1572 47.8311 45.5793 47.9526 45.8405 48.1955C46.1077 48.4384 46.2413 48.7816 46.2413 49.225ZM44.975 49.4072C44.975 49.2675 44.9203 49.1612 44.811 49.0883C44.7017 49.0154 44.5104 48.979 44.237 48.979H42.5972C42.5364 49.0397 42.4909 49.1065 42.4605 49.1794C42.4362 49.2584 42.4241 49.3343 42.4241 49.4072C42.4241 49.5833 42.5 49.7109 42.6518 49.7898C42.8037 49.8749 43.0618 49.9174 43.4262 49.9174H43.9728C44.3373 49.9174 44.5954 49.8749 44.7472 49.7898C44.8991 49.7109 44.975 49.5833 44.975 49.4072ZM43.6722 46.3005C43.9394 46.3005 44.1368 46.2459 44.2644 46.1366C44.398 46.0212 44.4648 45.8572 44.4648 45.6446V45.5353C44.4648 45.3227 44.398 45.1617 44.2644 45.0524C44.1368 44.937 43.9394 44.8793 43.6722 44.8793C43.405 44.8793 43.2045 44.937 43.0709 45.0524C42.9434 45.1617 42.8796 45.3227 42.8796 45.5353V45.6446C42.8796 45.8572 42.9434 46.0212 43.0709 46.1366C43.2045 46.2459 43.405 46.3005 43.6722 46.3005ZM47.5146 43.5856C47.2413 43.5856 47.0408 43.5249 46.9133 43.4034C46.7918 43.2759 46.7311 43.1149 46.7311 42.9206V42.7202C46.7311 42.5258 46.7918 42.3679 46.9133 42.2464C47.0408 42.1189 47.2413 42.0551 47.5146 42.0551C47.7879 42.0551 47.9853 42.1189 48.1068 42.2464C48.2343 42.3679 48.2981 42.5258 48.2981 42.7202V42.9206C48.2981 43.1149 48.2343 43.2759 48.1068 43.4034C47.9853 43.5249 47.7879 43.5856 47.5146 43.5856ZM46.8404 44.0958H48.1888V48.8788H46.8404V44.0958ZM51.0688 48.9881C50.6073 48.9881 50.2185 48.9152 49.9027 48.7695C49.5869 48.6176 49.3045 48.405 49.0555 48.1317L49.8481 47.33C50.0181 47.5183 50.2064 47.6671 50.4129 47.7764C50.6194 47.8858 50.8532 47.9404 51.1144 47.9404C51.3816 47.9404 51.5669 47.9009 51.6701 47.822C51.7734 47.7369 51.825 47.6246 51.825 47.4849C51.825 47.2602 51.6641 47.1266 51.3422 47.084L50.8229 47.0203C49.7478 46.8866 49.2103 46.3947 49.2103 45.5444C49.2103 45.3136 49.2528 45.104 49.3379 44.9158C49.429 44.7214 49.5535 44.5574 49.7114 44.4238C49.8754 44.2841 50.0697 44.1778 50.2945 44.1049C50.5253 44.026 50.7834 43.9865 51.0688 43.9865C51.3179 43.9865 51.5365 44.0047 51.7248 44.0412C51.9192 44.0715 52.0892 44.1201 52.235 44.1869C52.3868 44.2477 52.5235 44.3266 52.6449 44.4238C52.7725 44.5149 52.897 44.6182 53.0185 44.7336L52.2441 45.5262C52.0923 45.3743 51.9192 45.2559 51.7248 45.1709C51.5365 45.0797 51.3422 45.0342 51.1417 45.0342C50.9109 45.0342 50.7469 45.0706 50.6498 45.1435C50.5526 45.2164 50.504 45.3136 50.504 45.4351C50.504 45.5626 50.5374 45.6628 50.6042 45.7357C50.6771 45.8025 50.8107 45.8511 51.0051 45.8815L51.5426 45.9543C52.5933 46.094 53.1187 46.5739 53.1187 47.3938C53.1187 47.6246 53.0701 47.8372 52.9729 48.0315C52.8757 48.2259 52.7361 48.3959 52.5538 48.5417C52.3777 48.6814 52.1621 48.7907 51.907 48.8697C51.658 48.9486 51.3786 48.9881 51.0688 48.9881ZM55.6431 48.8788C55.1755 48.8788 54.8202 48.7603 54.5772 48.5235C54.3403 48.2866 54.2219 47.9404 54.2219 47.4849V45.1435H53.5477V44.0958H53.8848C54.067 44.0958 54.1915 44.0533 54.2583 43.9683C54.3252 43.8772 54.3586 43.7496 54.3586 43.5856V42.8021H55.5702V44.0958H56.5177V45.1435H55.5702V47.8311H56.4448V48.8788H55.6431ZM59.414 48.9881C59.0496 48.9881 58.7246 48.9304 58.4392 48.815C58.1537 48.6935 57.9108 48.5265 57.7103 48.3139C57.516 48.0953 57.3672 47.8311 57.2639 47.5213C57.1667 47.2116 57.1182 46.8654 57.1182 46.4827C57.1182 46.1062 57.1667 45.7661 57.2639 45.4624C57.3611 45.1526 57.5038 44.8884 57.6921 44.6698C57.8865 44.4511 58.1233 44.2841 58.4027 44.1687C58.6821 44.0472 59.001 43.9865 59.3593 43.9865C59.7541 43.9865 60.0912 44.0533 60.3706 44.1869C60.656 44.3205 60.8868 44.4997 61.063 44.7244C61.2452 44.9492 61.3757 45.2103 61.4547 45.5079C61.5397 45.7995 61.5823 46.1062 61.5823 46.4281V46.8289H58.512V46.9018C58.512 47.2177 58.5971 47.4697 58.7671 47.658C58.9372 47.8402 59.2044 47.9313 59.5689 47.9313C59.8482 47.9313 60.076 47.8766 60.2521 47.7673C60.4283 47.6519 60.5923 47.5153 60.7441 47.3573L61.4183 48.1955C61.2057 48.4445 60.9263 48.6389 60.5801 48.7786C60.24 48.9183 59.8513 48.9881 59.414 48.9881ZM59.3866 44.9795C59.1133 44.9795 58.8977 45.0706 58.7398 45.2528C58.588 45.429 58.512 45.6658 58.512 45.9635V46.0363H60.1884V45.9543C60.1884 45.6628 60.1216 45.429 59.9879 45.2528C59.8604 45.0706 59.66 44.9795 59.3866 44.9795ZM62.5345 48.8788V44.0958H63.8828V45.1344H63.9284C63.9527 45.0008 63.9952 44.8732 64.0559 44.7518C64.1167 44.6242 64.1956 44.5119 64.2928 44.4147C64.3961 44.3175 64.5175 44.2416 64.6572 44.1869C64.7969 44.1262 64.9609 44.0958 65.1492 44.0958H65.3861V45.3531H65.049C64.6542 45.3531 64.3596 45.4047 64.1653 45.5079C63.977 45.6112 63.8828 45.8025 63.8828 46.0819V48.8788H62.5345ZM32.3233 60.8788V58.3916L30.146 54.5197H31.6947L33.0613 57.0524H33.0795L34.3914 54.5197H35.8946L33.7172 58.3825V60.8788H32.3233ZM38.0068 60.9881C37.6545 60.9881 37.3387 60.9304 37.0593 60.815C36.786 60.6996 36.5522 60.5326 36.3578 60.3139C36.1695 60.0953 36.0238 59.8311 35.9205 59.5213C35.8173 59.2116 35.7657 58.8654 35.7657 58.4827C35.7657 58.1001 35.8173 57.7539 35.9205 57.4442C36.0238 57.1344 36.1695 56.8732 36.3578 56.6607C36.5522 56.442 36.786 56.275 37.0593 56.1596C37.3387 56.0442 37.6545 55.9865 38.0068 55.9865C38.3591 55.9865 38.6719 56.0442 38.9452 56.1596C39.2246 56.275 39.4584 56.442 39.6467 56.6607C39.841 56.8732 39.9898 57.1344 40.0931 57.4442C40.1963 57.7539 40.248 58.1001 40.248 58.4827C40.248 58.8654 40.1963 59.2116 40.0931 59.5213C39.9898 59.8311 39.841 60.0953 39.6467 60.3139C39.4584 60.5326 39.2246 60.6996 38.9452 60.815C38.6719 60.9304 38.3591 60.9881 38.0068 60.9881ZM38.0068 59.9222C38.274 59.9222 38.4806 59.8402 38.6263 59.6762C38.7721 59.5122 38.845 59.2784 38.845 58.9747V57.9999C38.845 57.6962 38.7721 57.4624 38.6263 57.2984C38.4806 57.1344 38.274 57.0524 38.0068 57.0524C37.7396 57.0524 37.5331 57.1344 37.3873 57.2984C37.2415 57.4624 37.1687 57.6962 37.1687 57.9999V58.9747C37.1687 59.2784 37.2415 59.5122 37.3873 59.6762C37.5331 59.8402 37.7396 59.9222 38.0068 59.9222ZM44.0329 60.0771H43.9874C43.9448 60.1985 43.8871 60.3139 43.8143 60.4233C43.7475 60.5326 43.6594 60.6298 43.5501 60.7148C43.4407 60.7998 43.3102 60.8666 43.1583 60.9152C43.0125 60.9638 42.8425 60.9881 42.6481 60.9881C42.1562 60.9881 41.7826 60.8272 41.5276 60.5053C41.2785 60.1773 41.154 59.7096 41.154 59.1023V56.0958H42.5024V58.9838C42.5024 59.2754 42.554 59.5001 42.6572 59.658C42.7605 59.8159 42.9366 59.8949 43.1856 59.8949C43.2889 59.8949 43.3921 59.8797 43.4954 59.8493C43.5987 59.8189 43.6898 59.7764 43.7687 59.7218C43.8477 59.661 43.9114 59.5881 43.96 59.5031C44.0086 59.4181 44.0329 59.3179 44.0329 59.2025V56.0958H45.3813V60.8788H44.0329V60.0771ZM46.6358 60.8788V56.0958H47.9841V57.1344H48.0297C48.054 57.0008 48.0965 56.8732 48.1572 56.7518C48.218 56.6242 48.2969 56.5119 48.3941 56.4147C48.4973 56.3175 48.6188 56.2416 48.7585 56.1869C48.8982 56.1262 49.0622 56.0958 49.2505 56.0958H49.4873V57.3531H49.1503C48.7555 57.3531 48.4609 57.4047 48.2665 57.5079C48.0783 57.6112 47.9841 57.8025 47.9841 58.0819V60.8788H46.6358ZM51.9407 60.9881C51.4791 60.9881 51.0904 60.9152 50.7746 60.7695C50.4588 60.6176 50.1764 60.405 49.9273 60.1317L50.7199 59.33C50.89 59.5183 51.0783 59.6671 51.2848 59.7764C51.4913 59.8858 51.7251 59.9404 51.9863 59.9404C52.2535 59.9404 52.4388 59.9009 52.542 59.822C52.6453 59.7369 52.6969 59.6246 52.6969 59.4849C52.6969 59.2602 52.536 59.1266 52.2141 59.084L51.6948 59.0203C50.6197 58.8866 50.0822 58.3947 50.0822 57.5444C50.0822 57.3136 50.1247 57.104 50.2098 56.9158C50.3009 56.7214 50.4254 56.5574 50.5833 56.4238C50.7473 56.2841 50.9416 56.1778 51.1664 56.1049C51.3972 56.026 51.6553 55.9865 51.9407 55.9865C52.1898 55.9865 52.4084 56.0047 52.5967 56.0412C52.791 56.0715 52.9611 56.1201 53.1069 56.1869C53.2587 56.2477 53.3954 56.3266 53.5168 56.4238C53.6444 56.5149 53.7689 56.6182 53.8904 56.7336L53.116 57.5262C52.9641 57.3743 52.791 57.2559 52.5967 57.1709C52.4084 57.0797 52.2141 57.0342 52.0136 57.0342C51.7828 57.0342 51.6188 57.0706 51.5217 57.1435C51.4245 57.2164 51.3759 57.3136 51.3759 57.4351C51.3759 57.5626 51.4093 57.6628 51.4761 57.7357C51.549 57.8025 51.6826 57.8511 51.877 57.8815L52.4145 57.9543C53.4652 58.094 53.9906 58.5739 53.9906 59.3938C53.9906 59.6246 53.942 59.8372 53.8448 60.0315C53.7476 60.2259 53.6079 60.3959 53.4257 60.5417C53.2496 60.6814 53.034 60.7907 52.7789 60.8697C52.5299 60.9486 52.2505 60.9881 51.9407 60.9881ZM56.9051 60.9881C56.5406 60.9881 56.2157 60.9304 55.9302 60.815C55.6448 60.6935 55.4018 60.5265 55.2014 60.3139C55.0071 60.0953 54.8583 59.8311 54.755 59.5213C54.6578 59.2116 54.6092 58.8654 54.6092 58.4827C54.6092 58.1062 54.6578 57.7661 54.755 57.4624C54.8522 57.1526 54.9949 56.8884 55.1832 56.6698C55.3775 56.4511 55.6144 56.2841 55.8938 56.1687C56.1732 56.0472 56.4921 55.9865 56.8504 55.9865C57.2452 55.9865 57.5823 56.0533 57.8616 56.1869C58.1471 56.3205 58.3779 56.4997 58.554 56.7244C58.7362 56.9492 58.8668 57.2103 58.9458 57.5079C59.0308 57.7995 59.0733 58.1062 59.0733 58.4281V58.8289H56.0031V58.9018C56.0031 59.2177 56.0882 59.4697 56.2582 59.658C56.4283 59.8402 56.6955 59.9313 57.0599 59.9313C57.3393 59.9313 57.5671 59.8766 57.7432 59.7673C57.9193 59.6519 58.0833 59.5153 58.2352 59.3573L58.9093 60.1955C58.6968 60.4445 58.4174 60.6389 58.0712 60.7786C57.7311 60.9183 57.3424 60.9881 56.9051 60.9881ZM56.8777 56.9795C56.6044 56.9795 56.3888 57.0706 56.2309 57.2528C56.079 57.429 56.0031 57.6658 56.0031 57.9635V58.0363H57.6794V57.9543C57.6794 57.6628 57.6126 57.429 57.479 57.2528C57.3515 57.0706 57.151 56.9795 56.8777 56.9795ZM61.3648 60.8788C60.9032 60.8788 60.5631 60.7664 60.3444 60.5417C60.1319 60.317 60.0256 59.992 60.0256 59.5669V54.1371H61.3739V59.8311H61.9752V60.8788H61.3648ZM63.0205 57.1435H62.3463V56.0958H63.0205V55.531C63.0205 55.0694 63.142 54.7232 63.3849 54.4924C63.6278 54.2555 63.9831 54.1371 64.4508 54.1371H65.3254V55.1848H64.3688V56.0958H65.3254V57.1435H64.3688V60.8788H63.0205V57.1435Z" fill="#198875"/>
<path d="M182.517 187.322L182.061 185.81H179.938L179.483 187.322H178.08L180.175 180.963H181.888L183.956 187.322H182.517ZM181.013 182.22H180.968L180.266 184.634H181.724L181.013 182.22ZM186.27 187.322C185.803 187.322 185.447 187.204 185.204 186.967C184.968 186.73 184.849 186.384 184.849 185.928V183.587H184.175V182.539H184.512C184.694 182.539 184.819 182.497 184.886 182.412C184.952 182.32 184.986 182.193 184.986 182.029V181.245H186.197V182.539H187.145V183.587H186.197V186.274H187.072V187.322H186.27ZM189.713 187.322C189.246 187.322 188.89 187.204 188.648 186.967C188.411 186.73 188.292 186.384 188.292 185.928V183.587H187.618V182.539H187.955C188.137 182.539 188.262 182.497 188.329 182.412C188.395 182.32 188.429 182.193 188.429 182.029V181.245H189.641V182.539H190.588V183.587H189.641V186.274H190.515V187.322H189.713ZM193.484 187.431C193.12 187.431 192.795 187.374 192.509 187.258C192.224 187.137 191.981 186.97 191.781 186.757C191.586 186.539 191.437 186.274 191.334 185.965C191.237 185.655 191.188 185.309 191.188 184.926C191.188 184.549 191.237 184.209 191.334 183.906C191.431 183.596 191.574 183.332 191.762 183.113C191.957 182.894 192.194 182.727 192.473 182.612C192.752 182.49 193.071 182.43 193.43 182.43C193.824 182.43 194.161 182.497 194.441 182.63C194.726 182.764 194.957 182.943 195.133 183.168C195.315 183.392 195.446 183.654 195.525 183.951C195.61 184.243 195.653 184.549 195.653 184.871V185.272H192.582V185.345C192.582 185.661 192.667 185.913 192.837 186.101C193.007 186.283 193.275 186.375 193.639 186.375C193.919 186.375 194.146 186.32 194.322 186.211C194.499 186.095 194.663 185.958 194.814 185.801L195.489 186.639C195.276 186.888 194.997 187.082 194.65 187.222C194.31 187.361 193.922 187.431 193.484 187.431ZM193.457 183.423C193.184 183.423 192.968 183.514 192.81 183.696C192.658 183.872 192.582 184.109 192.582 184.407V184.48H194.259V184.398C194.259 184.106 194.192 183.872 194.058 183.696C193.931 183.514 193.73 183.423 193.457 183.423ZM196.605 187.322V182.539H197.953V183.35H198.008C198.093 183.101 198.242 182.885 198.454 182.703C198.667 182.521 198.961 182.43 199.338 182.43C199.83 182.43 200.2 182.594 200.449 182.922C200.704 183.25 200.832 183.717 200.832 184.325V187.322H199.484V184.434C199.484 184.124 199.435 183.897 199.338 183.751C199.241 183.599 199.068 183.523 198.819 183.523C198.709 183.523 198.603 183.538 198.5 183.569C198.397 183.593 198.302 183.635 198.217 183.696C198.138 183.757 198.075 183.833 198.026 183.924C197.977 184.009 197.953 184.109 197.953 184.224V187.322H196.605ZM204.965 186.52H204.92C204.883 186.648 204.826 186.769 204.747 186.885C204.668 186.994 204.571 187.091 204.455 187.176C204.346 187.255 204.218 187.316 204.073 187.358C203.933 187.407 203.787 187.431 203.635 187.431C203.028 187.431 202.569 187.219 202.26 186.794C201.95 186.362 201.795 185.74 201.795 184.926C201.795 184.112 201.95 183.493 202.26 183.067C202.569 182.642 203.028 182.43 203.635 182.43C203.945 182.43 204.218 182.515 204.455 182.685C204.698 182.855 204.853 183.074 204.92 183.341H204.965V180.58H206.314V187.322H204.965V186.52ZM204.082 186.338C204.337 186.338 204.546 186.277 204.71 186.156C204.88 186.028 204.965 185.855 204.965 185.637V184.224C204.965 184.006 204.88 183.836 204.71 183.714C204.546 183.587 204.337 183.523 204.082 183.523C203.827 183.523 203.614 183.614 203.444 183.796C203.28 183.972 203.198 184.212 203.198 184.516V185.345C203.198 185.649 203.28 185.892 203.444 186.074C203.614 186.25 203.827 186.338 204.082 186.338ZM174.81 199.322L173.371 192.963H174.738L175.339 196.015L175.676 197.782H175.703L176.104 196.015L176.806 192.963H178.318L179.029 196.015L179.42 197.782H179.448L179.785 196.015L180.395 192.963H181.707L180.231 199.322H178.655L177.853 195.878L177.544 194.484H177.516L177.197 195.878L176.396 199.322H174.81ZM184.361 199.431C183.996 199.431 183.671 199.374 183.386 199.258C183.1 199.137 182.857 198.97 182.657 198.757C182.463 198.539 182.314 198.274 182.21 197.965C182.113 197.655 182.065 197.309 182.065 196.926C182.065 196.549 182.113 196.209 182.21 195.906C182.308 195.596 182.45 195.332 182.639 195.113C182.833 194.894 183.07 194.727 183.349 194.612C183.629 194.49 183.948 194.43 184.306 194.43C184.701 194.43 185.038 194.497 185.317 194.63C185.603 194.764 185.833 194.943 186.01 195.168C186.192 195.392 186.322 195.654 186.401 195.951C186.486 196.243 186.529 196.549 186.529 196.871V197.272H183.459V197.345C183.459 197.661 183.544 197.913 183.714 198.101C183.884 198.283 184.151 198.375 184.515 198.375C184.795 198.375 185.023 198.32 185.199 198.211C185.375 198.095 185.539 197.958 185.691 197.801L186.365 198.639C186.152 198.888 185.873 199.082 185.527 199.222C185.187 199.361 184.798 199.431 184.361 199.431ZM184.333 195.423C184.06 195.423 183.844 195.514 183.686 195.696C183.535 195.872 183.459 196.109 183.459 196.407V196.48H185.135V196.398C185.135 196.106 185.068 195.872 184.934 195.696C184.807 195.514 184.607 195.423 184.333 195.423ZM187.481 192.58H188.829V195.341H188.875C188.942 195.074 189.094 194.855 189.33 194.685C189.573 194.515 189.85 194.43 190.16 194.43C190.767 194.43 191.225 194.642 191.535 195.067C191.845 195.493 192 196.112 192 196.926C192 197.74 191.845 198.362 191.535 198.794C191.225 199.219 190.767 199.431 190.16 199.431C190.002 199.431 189.853 199.407 189.713 199.358C189.573 199.316 189.446 199.255 189.33 199.176C189.221 199.091 189.127 198.994 189.048 198.885C188.969 198.769 188.911 198.648 188.875 198.52H188.829V199.322H187.481V192.58ZM189.713 198.338C189.968 198.338 190.178 198.25 190.342 198.074C190.512 197.892 190.597 197.649 190.597 197.345V196.516C190.597 196.212 190.512 195.972 190.342 195.796C190.178 195.614 189.968 195.523 189.713 195.523C189.458 195.523 189.245 195.587 189.075 195.714C188.911 195.836 188.829 196.006 188.829 196.224V197.637C188.829 197.855 188.911 198.028 189.075 198.156C189.245 198.277 189.458 198.338 189.713 198.338ZM193.698 194.029C193.425 194.029 193.224 193.968 193.097 193.847C192.975 193.719 192.914 193.558 192.914 193.364V193.163C192.914 192.969 192.975 192.811 193.097 192.69C193.224 192.562 193.425 192.498 193.698 192.498C193.971 192.498 194.169 192.562 194.29 192.69C194.418 192.811 194.481 192.969 194.481 193.163V193.364C194.481 193.558 194.418 193.719 194.29 193.847C194.169 193.968 193.971 194.029 193.698 194.029ZM193.024 194.539H194.372V199.322H193.024V194.539ZM195.631 199.322V194.539H196.979V195.35H197.034C197.119 195.101 197.267 194.885 197.48 194.703C197.693 194.521 197.987 194.43 198.364 194.43C198.856 194.43 199.226 194.594 199.475 194.922C199.73 195.25 199.858 195.717 199.858 196.325V199.322H198.509V196.434C198.509 196.124 198.461 195.897 198.364 195.751C198.267 195.599 198.093 195.523 197.844 195.523C197.735 195.523 197.629 195.538 197.526 195.569C197.422 195.593 197.328 195.635 197.243 195.696C197.164 195.757 197.1 195.833 197.052 195.924C197.003 196.009 196.979 196.109 196.979 196.224V199.322H195.631ZM204.593 199.322C204.35 199.322 204.146 199.246 203.982 199.094C203.824 198.942 203.724 198.739 203.681 198.484H203.627C203.554 198.794 203.393 199.03 203.144 199.194C202.895 199.352 202.588 199.431 202.224 199.431C201.744 199.431 201.377 199.304 201.121 199.049C200.866 198.794 200.739 198.457 200.739 198.037C200.739 197.533 200.921 197.16 201.285 196.917C201.656 196.668 202.157 196.543 202.789 196.543H203.545V196.243C203.545 196.012 203.484 195.83 203.363 195.696C203.241 195.556 203.038 195.487 202.752 195.487C202.485 195.487 202.272 195.544 202.114 195.66C201.957 195.775 201.826 195.906 201.723 196.051L200.921 195.341C201.115 195.055 201.358 194.834 201.65 194.676C201.947 194.512 202.348 194.43 202.852 194.43C203.533 194.43 204.043 194.579 204.383 194.876C204.723 195.174 204.893 195.608 204.893 196.179V198.274H205.34V199.322H204.593ZM202.725 198.493C202.95 198.493 203.141 198.444 203.299 198.347C203.463 198.25 203.545 198.092 203.545 197.873V197.309H202.889C202.36 197.309 202.096 197.488 202.096 197.846V197.983C202.096 198.159 202.151 198.29 202.26 198.375C202.37 198.453 202.524 198.493 202.725 198.493ZM206.245 199.322V194.539H207.593V195.578H207.638C207.663 195.444 207.705 195.316 207.766 195.195C207.827 195.067 207.906 194.955 208.003 194.858C208.106 194.761 208.228 194.685 208.367 194.63C208.507 194.569 208.671 194.539 208.859 194.539H209.096V195.796H208.759C208.364 195.796 208.07 195.848 207.875 195.951C207.687 196.054 207.593 196.246 207.593 196.525V199.322H206.245ZM211.55 199.431C211.088 199.431 210.699 199.358 210.383 199.213C210.068 199.061 209.785 198.848 209.536 198.575L210.329 197.773C210.499 197.962 210.687 198.11 210.894 198.22C211.1 198.329 211.334 198.384 211.595 198.384C211.862 198.384 212.048 198.344 212.151 198.265C212.254 198.18 212.306 198.068 212.306 197.928C212.306 197.703 212.145 197.57 211.823 197.527L211.304 197.463C210.229 197.33 209.691 196.838 209.691 195.988C209.691 195.757 209.734 195.547 209.819 195.359C209.91 195.165 210.034 195.001 210.192 194.867C210.356 194.727 210.55 194.621 210.775 194.548C211.006 194.469 211.264 194.43 211.55 194.43C211.799 194.43 212.017 194.448 212.205 194.484C212.4 194.515 212.57 194.563 212.716 194.63C212.867 194.691 213.004 194.77 213.126 194.867C213.253 194.958 213.378 195.061 213.499 195.177L212.725 195.969C212.573 195.818 212.4 195.699 212.205 195.614C212.017 195.523 211.823 195.477 211.622 195.477C211.392 195.477 211.228 195.514 211.13 195.587C211.033 195.66 210.985 195.757 210.985 195.878C210.985 196.006 211.018 196.106 211.085 196.179C211.158 196.246 211.291 196.294 211.486 196.325L212.023 196.398C213.074 196.537 213.599 197.017 213.599 197.837C213.599 198.068 213.551 198.28 213.454 198.475C213.356 198.669 213.217 198.839 213.035 198.985C212.858 199.125 212.643 199.234 212.388 199.313C212.139 199.392 211.859 199.431 211.55 199.431Z" fill="#198875"/>
<path d="M179.024 48.689C178.465 48.689 177.992 48.5949 177.603 48.4066C177.214 48.2123 176.883 47.9632 176.61 47.6596L177.521 46.7394C177.952 47.2253 178.483 47.4682 179.115 47.4682C179.455 47.4682 179.707 47.3984 179.871 47.2587C180.035 47.119 180.117 46.9338 180.117 46.703C180.117 46.5268 180.069 46.3811 179.972 46.2657C179.874 46.1442 179.677 46.0622 179.379 46.0197L178.751 45.9377C178.077 45.8527 177.582 45.6492 177.266 45.3273C176.956 45.0054 176.801 44.5772 176.801 44.0427C176.801 43.7573 176.856 43.4961 176.965 43.2592C177.074 43.0224 177.229 42.8189 177.43 42.6488C177.636 42.4788 177.885 42.3482 178.177 42.2571C178.474 42.1599 178.811 42.1113 179.188 42.1113C179.668 42.1113 180.09 42.1872 180.454 42.3391C180.819 42.4909 181.132 42.7126 181.393 43.0041L180.473 43.9334C180.321 43.7573 180.135 43.6145 179.917 43.5052C179.704 43.3898 179.434 43.3321 179.106 43.3321C178.796 43.3321 178.565 43.3868 178.414 43.4961C178.262 43.6054 178.186 43.7573 178.186 43.9516C178.186 44.1703 178.244 44.3282 178.359 44.4254C178.48 44.5225 178.675 44.5924 178.942 44.6349L179.571 44.7351C180.227 44.8384 180.712 45.0418 181.028 45.3455C181.344 45.6431 181.502 46.0683 181.502 46.621C181.502 46.9247 181.447 47.204 181.338 47.4591C181.229 47.7142 181.068 47.9329 180.855 48.1151C180.649 48.2973 180.391 48.44 180.081 48.5433C179.771 48.6404 179.419 48.689 179.024 48.689ZM184.572 48.689C184.208 48.689 183.883 48.6313 183.598 48.5159C183.312 48.3945 183.069 48.2274 182.869 48.0149C182.674 47.7962 182.526 47.532 182.422 47.2223C182.325 46.9125 182.277 46.5663 182.277 46.1837C182.277 45.8071 182.325 45.467 182.422 45.1633C182.52 44.8536 182.662 44.5894 182.851 44.3707C183.045 44.1521 183.282 43.985 183.561 43.8696C183.841 43.7482 184.159 43.6874 184.518 43.6874C184.913 43.6874 185.25 43.7542 185.529 43.8879C185.815 44.0215 186.045 44.2006 186.221 44.4254C186.404 44.6501 186.534 44.9113 186.613 45.2089C186.698 45.5004 186.741 45.8071 186.741 46.129V46.5299H183.671V46.6028C183.671 46.9186 183.756 47.1706 183.926 47.3589C184.096 47.5411 184.363 47.6322 184.727 47.6322C185.007 47.6322 185.234 47.5776 185.411 47.4682C185.587 47.3528 185.751 47.2162 185.903 47.0583L186.577 47.8964C186.364 48.1454 186.085 48.3398 185.739 48.4795C185.398 48.6192 185.01 48.689 184.572 48.689ZM184.545 44.6805C184.272 44.6805 184.056 44.7716 183.898 44.9538C183.746 45.1299 183.671 45.3668 183.671 45.6644V45.7373H185.347V45.6553C185.347 45.3637 185.28 45.1299 185.146 44.9538C185.019 44.7716 184.818 44.6805 184.545 44.6805ZM189.032 48.5797C188.571 48.5797 188.231 48.4674 188.012 48.2426C187.799 48.0179 187.693 47.693 187.693 47.2678V41.838H189.041V47.532H189.643V48.5797H189.032ZM192.446 48.689C192.082 48.689 191.757 48.6313 191.471 48.5159C191.186 48.3945 190.943 48.2274 190.743 48.0149C190.548 47.7962 190.399 47.532 190.296 47.2223C190.199 46.9125 190.15 46.5663 190.15 46.1837C190.15 45.8071 190.199 45.467 190.296 45.1633C190.393 44.8536 190.536 44.5894 190.724 44.3707C190.919 44.1521 191.156 43.985 191.435 43.8696C191.714 43.7482 192.033 43.6874 192.392 43.6874C192.786 43.6874 193.123 43.7542 193.403 43.8879C193.688 44.0215 193.919 44.2006 194.095 44.4254C194.277 44.6501 194.408 44.9113 194.487 45.2089C194.572 45.5004 194.614 45.8071 194.614 46.129V46.5299H191.544V46.6028C191.544 46.9186 191.629 47.1706 191.799 47.3589C191.969 47.5411 192.237 47.6322 192.601 47.6322C192.88 47.6322 193.108 47.5776 193.284 47.4682C193.46 47.3528 193.624 47.2162 193.776 47.0583L194.45 47.8964C194.238 48.1454 193.959 48.3398 193.612 48.4795C193.272 48.6192 192.884 48.689 192.446 48.689ZM192.419 44.6805C192.146 44.6805 191.93 44.7716 191.772 44.9538C191.62 45.1299 191.544 45.3668 191.544 45.6644V45.7373H193.221V45.6553C193.221 45.3637 193.154 45.1299 193.02 44.9538C192.893 44.7716 192.692 44.6805 192.419 44.6805ZM197.498 48.689C197.14 48.689 196.821 48.6313 196.542 48.5159C196.262 48.3945 196.028 48.2274 195.84 48.0149C195.652 47.7962 195.509 47.532 195.412 47.2223C195.315 46.9125 195.266 46.5663 195.266 46.1837C195.266 45.801 195.315 45.4579 195.412 45.1542C195.509 44.8444 195.652 44.5802 195.84 44.3616C196.028 44.1429 196.262 43.9759 196.542 43.8605C196.821 43.7451 197.14 43.6874 197.498 43.6874C197.984 43.6874 198.388 43.7968 198.71 44.0154C199.038 44.2341 199.272 44.5408 199.411 44.9356L198.318 45.4093C198.276 45.2271 198.187 45.0722 198.054 44.9447C197.92 44.8171 197.735 44.7533 197.498 44.7533C197.225 44.7533 197.018 44.8444 196.879 45.0267C196.739 45.2028 196.669 45.4427 196.669 45.7464V46.6392C196.669 46.9429 196.739 47.1828 196.879 47.3589C197.018 47.5351 197.225 47.6231 197.498 47.6231C197.741 47.6231 197.932 47.5593 198.072 47.4318C198.218 47.2982 198.324 47.1251 198.391 46.9125L199.439 47.368C199.281 47.8235 199.035 48.1576 198.701 48.3702C198.373 48.5827 197.972 48.689 197.498 48.689ZM201.949 48.5797C201.482 48.5797 201.127 48.4613 200.884 48.2244C200.647 47.9875 200.528 47.6413 200.528 47.1858V44.8444H199.854V43.7968H200.191C200.373 43.7968 200.498 43.7542 200.565 43.6692C200.632 43.5781 200.665 43.4506 200.665 43.2866V42.5031H201.877V43.7968H202.824V44.8444H201.877V47.532H202.751V48.5797H201.949ZM209.449 48.5797C209.206 48.5797 209.002 48.5038 208.838 48.352C208.68 48.2001 208.58 47.9966 208.538 47.7416H208.483C208.41 48.0513 208.249 48.2882 208 48.4522C207.751 48.6101 207.444 48.689 207.08 48.689C206.6 48.689 206.233 48.5615 205.978 48.3064C205.722 48.0513 205.595 47.7142 205.595 47.2951C205.595 46.791 205.777 46.4175 206.142 46.1746C206.512 45.9255 207.013 45.801 207.645 45.801H208.401V45.5004C208.401 45.2696 208.34 45.0874 208.219 44.9538C208.097 44.8141 207.894 44.7442 207.608 44.7442C207.341 44.7442 207.129 44.8019 206.971 44.9173C206.813 45.0327 206.682 45.1633 206.579 45.3091L205.777 44.5985C205.971 44.313 206.214 44.0913 206.506 43.9334C206.804 43.7694 207.204 43.6874 207.709 43.6874C208.389 43.6874 208.899 43.8362 209.239 44.1338C209.579 44.4314 209.749 44.8657 209.749 45.4366V47.532H210.196V48.5797H209.449ZM207.581 47.7507C207.806 47.7507 207.997 47.7021 208.155 47.6049C208.319 47.5077 208.401 47.3498 208.401 47.1312V46.5663H207.745C207.217 46.5663 206.952 46.7455 206.952 47.1038V47.2405C206.952 47.4166 207.007 47.5472 207.116 47.6322C207.226 47.7112 207.381 47.7507 207.581 47.7507ZM165.315 60.5797V54.2207H168.321C168.619 54.2207 168.886 54.2723 169.123 54.3755C169.36 54.4727 169.56 54.6094 169.724 54.7855C169.894 54.9616 170.025 55.1772 170.116 55.4323C170.207 55.6814 170.252 55.9547 170.252 56.2523C170.252 56.556 170.207 56.8323 170.116 57.0813C170.025 57.3303 169.894 57.5429 169.724 57.719C169.56 57.8952 169.36 58.0349 169.123 58.1381C168.886 58.2353 168.619 58.2839 168.321 58.2839H166.699V60.5797H165.315ZM166.699 57.0813H168.157C168.364 57.0813 168.525 57.0297 168.64 56.9264C168.761 56.8171 168.822 56.6592 168.822 56.4527V56.0518C168.822 55.8453 168.761 55.6905 168.64 55.5872C168.525 55.4779 168.364 55.4232 168.157 55.4232H166.699V57.0813ZM171.131 60.5797V55.7968H172.48V56.8353H172.525C172.55 56.7017 172.592 56.5742 172.653 56.4527C172.714 56.3252 172.793 56.2128 172.89 56.1156C172.993 56.0184 173.114 55.9425 173.254 55.8879C173.394 55.8271 173.558 55.7968 173.746 55.7968H173.983V57.054H173.646C173.251 57.054 172.957 57.1056 172.762 57.2089C172.574 57.3121 172.48 57.5034 172.48 57.7828V60.5797H171.131ZM176.711 60.689C176.359 60.689 176.043 60.6313 175.763 60.5159C175.49 60.4005 175.256 60.2335 175.062 60.0149C174.874 59.7962 174.728 59.532 174.625 59.2223C174.521 58.9125 174.47 58.5663 174.47 58.1837C174.47 57.801 174.521 57.4548 174.625 57.1451C174.728 56.8353 174.874 56.5742 175.062 56.3616C175.256 56.1429 175.49 55.9759 175.763 55.8605C176.043 55.7451 176.359 55.6874 176.711 55.6874C177.063 55.6874 177.376 55.7451 177.649 55.8605C177.929 55.9759 178.162 56.1429 178.351 56.3616C178.545 56.5742 178.694 56.8353 178.797 57.1451C178.9 57.4548 178.952 57.801 178.952 58.1837C178.952 58.5663 178.9 58.9125 178.797 59.2223C178.694 59.532 178.545 59.7962 178.351 60.0149C178.162 60.2335 177.929 60.4005 177.649 60.5159C177.376 60.6313 177.063 60.689 176.711 60.689ZM176.711 59.6231C176.978 59.6231 177.185 59.5411 177.33 59.3771C177.476 59.2132 177.549 58.9793 177.549 58.6756V57.7008C177.549 57.3971 177.476 57.1633 177.33 56.9993C177.185 56.8353 176.978 56.7533 176.711 56.7533C176.444 56.7533 176.237 56.8353 176.091 56.9993C175.946 57.1633 175.873 57.3971 175.873 57.7008V58.6756C175.873 58.9793 175.946 59.2132 176.091 59.3771C176.237 59.5411 176.444 59.6231 176.711 59.6231ZM179.913 53.838H181.261V56.5985H181.307C181.373 56.3312 181.525 56.1126 181.762 55.9425C182.005 55.7725 182.281 55.6874 182.591 55.6874C183.198 55.6874 183.657 55.9 183.967 56.3252C184.277 56.7503 184.431 57.3698 184.431 58.1837C184.431 58.9975 184.277 59.6201 183.967 60.0513C183.657 60.4765 183.198 60.689 182.591 60.689C182.433 60.689 182.284 60.6647 182.145 60.6162C182.005 60.5736 181.877 60.5129 181.762 60.4339C181.653 60.3489 181.559 60.2517 181.48 60.1424C181.401 60.027 181.343 59.9055 181.307 59.778H181.261V60.5797H179.913V53.838ZM182.145 59.5958C182.4 59.5958 182.609 59.5077 182.773 59.3316C182.943 59.1494 183.028 58.9064 183.028 58.6028V57.7737C183.028 57.47 182.943 57.2301 182.773 57.054C182.609 56.8718 182.4 56.7807 182.145 56.7807C181.89 56.7807 181.677 56.8444 181.507 56.972C181.343 57.0935 181.261 57.2635 181.261 57.4822V58.8943C181.261 59.1129 181.343 59.286 181.507 59.4136C181.677 59.5351 181.89 59.5958 182.145 59.5958ZM186.795 60.5797C186.333 60.5797 185.993 60.4674 185.774 60.2426C185.562 60.0179 185.455 59.693 185.455 59.2678V53.838H186.804V59.532H187.405V60.5797H186.795ZM190.209 60.689C189.844 60.689 189.519 60.6313 189.234 60.5159C188.948 60.3945 188.705 60.2274 188.505 60.0149C188.311 59.7962 188.162 59.532 188.059 59.2223C187.961 58.9125 187.913 58.5663 187.913 58.1837C187.913 57.8071 187.961 57.467 188.059 57.1633C188.156 56.8536 188.298 56.5894 188.487 56.3707C188.681 56.1521 188.918 55.985 189.197 55.8696C189.477 55.7482 189.796 55.6874 190.154 55.6874C190.549 55.6874 190.886 55.7542 191.165 55.8879C191.451 56.0215 191.681 56.2006 191.858 56.4254C192.04 56.6501 192.17 56.9113 192.249 57.2089C192.334 57.5004 192.377 57.8071 192.377 58.129V58.5299H189.307V58.6028C189.307 58.9186 189.392 59.1706 189.562 59.3589C189.732 59.5411 189.999 59.6322 190.364 59.6322C190.643 59.6322 190.871 59.5776 191.047 59.4682C191.223 59.3528 191.387 59.2162 191.539 59.0583L192.213 59.8964C192 60.1454 191.721 60.3398 191.375 60.4795C191.035 60.6192 190.646 60.689 190.209 60.689ZM190.181 56.6805C189.908 56.6805 189.692 56.7716 189.534 56.9538C189.383 57.1299 189.307 57.3668 189.307 57.6644V57.7373H190.983V57.6553C190.983 57.3637 190.916 57.1299 190.783 56.9538C190.655 56.7716 190.455 56.6805 190.181 56.6805ZM193.329 60.5797V55.7968H194.678V56.6076H194.732C194.817 56.3525 194.963 56.1369 195.169 55.9607C195.376 55.7785 195.658 55.6874 196.017 55.6874C196.345 55.6874 196.624 55.7694 196.855 55.9334C197.086 56.0974 197.253 56.3373 197.356 56.6531H197.383C197.426 56.5195 197.49 56.395 197.575 56.2796C197.666 56.1581 197.775 56.0549 197.903 55.9698C198.03 55.8848 198.173 55.818 198.331 55.7694C198.489 55.7148 198.659 55.6874 198.841 55.6874C199.303 55.6874 199.655 55.8514 199.898 56.1794C200.147 56.5074 200.271 56.975 200.271 57.5824V60.5797H198.923V57.6917C198.923 57.0844 198.704 56.7807 198.267 56.7807C198.067 56.7807 197.884 56.8384 197.72 56.9538C197.556 57.0692 197.474 57.2453 197.474 57.4822V60.5797H196.126V57.6917C196.126 57.0844 195.907 56.7807 195.47 56.7807C195.373 56.7807 195.276 56.7959 195.179 56.8262C195.087 56.8505 195.002 56.893 194.923 56.9538C194.851 57.0145 194.79 57.0904 194.741 57.1815C194.699 57.2666 194.678 57.3668 194.678 57.4822V60.5797H193.329ZM207.158 60.5797C206.915 60.5797 206.711 60.5038 206.547 60.352C206.389 60.2001 206.289 59.9966 206.247 59.7416H206.192C206.119 60.0513 205.958 60.2882 205.709 60.4522C205.46 60.6101 205.153 60.689 204.789 60.689C204.309 60.689 203.942 60.5615 203.687 60.3064C203.432 60.0513 203.304 59.7142 203.304 59.2951C203.304 58.791 203.486 58.4175 203.851 58.1746C204.221 57.9255 204.722 57.801 205.354 57.801H206.11V57.5004C206.11 57.2696 206.049 57.0874 205.928 56.9538C205.806 56.8141 205.603 56.7442 205.317 56.7442C205.05 56.7442 204.838 56.8019 204.68 56.9173C204.522 57.0327 204.391 57.1633 204.288 57.3091L203.486 56.5985C203.681 56.313 203.923 56.0913 204.215 55.9334C204.513 55.7694 204.913 55.6874 205.418 55.6874C206.098 55.6874 206.608 55.8362 206.948 56.1338C207.288 56.4314 207.458 56.8657 207.458 57.4366V59.532H207.905V60.5797H207.158ZM205.29 59.7507C205.515 59.7507 205.706 59.7021 205.864 59.6049C206.028 59.5077 206.11 59.3498 206.11 59.1312V58.5663H205.454C204.926 58.5663 204.661 58.7455 204.661 59.1038V59.2405C204.661 59.4166 204.716 59.5472 204.825 59.6322C204.935 59.7112 205.09 59.7507 205.29 59.7507ZM208.81 60.5797V55.7968H210.158V56.8353H210.204C210.228 56.7017 210.27 56.5742 210.331 56.4527C210.392 56.3252 210.471 56.2128 210.568 56.1156C210.671 56.0184 210.793 55.9425 210.932 55.8879C211.072 55.8271 211.236 55.7968 211.424 55.7968H211.661V57.054H211.324C210.929 57.054 210.635 57.1056 210.44 57.2089C210.252 57.3121 210.158 57.5034 210.158 57.7828V60.5797H208.81ZM214.444 60.689C214.079 60.689 213.754 60.6313 213.469 60.5159C213.183 60.3945 212.941 60.2274 212.74 60.0149C212.546 59.7962 212.397 59.532 212.294 59.2223C212.197 58.9125 212.148 58.5663 212.148 58.1837C212.148 57.8071 212.197 57.467 212.294 57.1633C212.391 56.8536 212.534 56.5894 212.722 56.3707C212.916 56.1521 213.153 55.985 213.432 55.8696C213.712 55.7482 214.031 55.6874 214.389 55.6874C214.784 55.6874 215.121 55.7542 215.4 55.8879C215.686 56.0215 215.917 56.2006 216.093 56.4254C216.275 56.6501 216.406 56.9113 216.484 57.2089C216.569 57.5004 216.612 57.8071 216.612 58.129V58.5299H213.542V58.6028C213.542 58.9186 213.627 59.1706 213.797 59.3589C213.967 59.5411 214.234 59.6322 214.599 59.6322C214.878 59.6322 215.106 59.5776 215.282 59.4682C215.458 59.3528 215.622 59.2162 215.774 59.0583L216.448 59.8964C216.235 60.1454 215.956 60.3398 215.61 60.4795C215.27 60.6192 214.881 60.689 214.444 60.689ZM214.416 56.6805C214.143 56.6805 213.927 56.7716 213.77 56.9538C213.618 57.1299 213.542 57.3668 213.542 57.6644V57.7373H215.218V57.6553C215.218 57.3637 215.151 57.1299 215.018 56.9538C214.89 56.7716 214.69 56.6805 214.416 56.6805ZM221.099 60.5797C220.856 60.5797 220.653 60.5038 220.489 60.352C220.331 60.2001 220.231 59.9966 220.188 59.7416H220.133C220.061 60.0513 219.9 60.2882 219.651 60.4522C219.402 60.6101 219.095 60.689 218.73 60.689C218.251 60.689 217.883 60.5615 217.628 60.3064C217.373 60.0513 217.245 59.7142 217.245 59.2951C217.245 58.791 217.428 58.4175 217.792 58.1746C218.163 57.9255 218.664 57.801 219.295 57.801H220.051V57.5004C220.051 57.2696 219.991 57.0874 219.869 56.9538C219.748 56.8141 219.544 56.7442 219.259 56.7442C218.992 56.7442 218.779 56.8019 218.621 56.9173C218.463 57.0327 218.333 57.1633 218.229 57.3091L217.428 56.5985C217.622 56.313 217.865 56.0913 218.156 55.9334C218.454 55.7694 218.855 55.6874 219.359 55.6874C220.039 55.6874 220.549 55.8362 220.89 56.1338C221.23 56.4314 221.4 56.8657 221.4 57.4366V59.532H221.846V60.5797H221.099ZM219.231 59.7507C219.456 59.7507 219.648 59.7021 219.805 59.6049C219.969 59.5077 220.051 59.3498 220.051 59.1312V58.5663H219.395C218.867 58.5663 218.603 58.7455 218.603 59.1038V59.2405C218.603 59.4166 218.658 59.5472 218.767 59.6322C218.876 59.7112 219.031 59.7507 219.231 59.7507Z" fill="#198875"/>
<path d="M34.2303 187.109C33.6715 187.109 33.1978 187.015 32.8091 186.827C32.4203 186.633 32.0893 186.384 31.816 186.08L32.7271 185.16C33.1583 185.646 33.6897 185.889 34.3214 185.889C34.6615 185.889 34.9136 185.819 35.0775 185.679C35.2415 185.539 35.3235 185.354 35.3235 185.123C35.3235 184.947 35.2749 184.801 35.1778 184.686C35.0806 184.564 34.8832 184.482 34.5856 184.44L33.957 184.358C33.2828 184.273 32.7878 184.069 32.472 183.748C32.1622 183.426 32.0073 182.997 32.0073 182.463C32.0073 182.178 32.062 181.916 32.1713 181.68C32.2807 181.443 32.4355 181.239 32.636 181.069C32.8425 180.899 33.0915 180.768 33.383 180.677C33.6806 180.58 34.0177 180.532 34.3943 180.532C34.8741 180.532 35.2962 180.608 35.6606 180.759C36.025 180.911 36.3378 181.133 36.599 181.424L35.6788 182.354C35.527 182.178 35.3418 182.035 35.1231 181.926C34.9105 181.81 34.6402 181.752 34.3123 181.752C34.0025 181.752 33.7717 181.807 33.6199 181.916C33.468 182.026 33.3921 182.178 33.3921 182.372C33.3921 182.591 33.4498 182.748 33.5652 182.846C33.6867 182.943 33.881 183.013 34.1483 183.055L34.7769 183.155C35.4329 183.259 35.9187 183.462 36.2346 183.766C36.5504 184.063 36.7083 184.489 36.7083 185.041C36.7083 185.345 36.6536 185.624 36.5443 185.879C36.435 186.135 36.274 186.353 36.0615 186.535C35.855 186.718 35.5968 186.86 35.2871 186.964C34.9773 187.061 34.6251 187.109 34.2303 187.109ZM40.6078 186.198H40.5622C40.5197 186.32 40.462 186.435 40.3891 186.544C40.3223 186.654 40.2342 186.751 40.1249 186.836C40.0156 186.921 39.885 186.988 39.7332 187.036C39.5874 187.085 39.4174 187.109 39.223 187.109C38.731 187.109 38.3575 186.948 38.1024 186.626C37.8534 186.298 37.7289 185.831 37.7289 185.223V182.217H39.0772V185.105C39.0772 185.397 39.1289 185.621 39.2321 185.779C39.3354 185.937 39.5115 186.016 39.7605 186.016C39.8638 186.016 39.967 186.001 40.0703 185.971C40.1735 185.94 40.2646 185.898 40.3436 185.843C40.4225 185.782 40.4863 185.709 40.5349 185.624C40.5835 185.539 40.6078 185.439 40.6078 185.324V182.217H41.9561V187H40.6078V186.198ZM43.2106 180.258H44.559V183.019H44.6045C44.6713 182.752 44.8232 182.533 45.0601 182.363C45.303 182.193 45.5793 182.108 45.8891 182.108C46.4965 182.108 46.955 182.32 47.2648 182.745C47.5745 183.171 47.7294 183.79 47.7294 184.604C47.7294 185.418 47.5745 186.04 47.2648 186.472C46.955 186.897 46.4965 187.109 45.8891 187.109C45.7312 187.109 45.5824 187.085 45.4427 187.036C45.303 186.994 45.1755 186.933 45.0601 186.854C44.9507 186.769 44.8566 186.672 44.7776 186.563C44.6987 186.447 44.641 186.326 44.6045 186.198H44.559V187H43.2106V180.258ZM45.4427 186.016C45.6978 186.016 45.9073 185.928 46.0713 185.752C46.2414 185.57 46.3264 185.327 46.3264 185.023V184.194C46.3264 183.89 46.2414 183.65 46.0713 183.474C45.9073 183.292 45.6978 183.201 45.4427 183.201C45.1876 183.201 44.975 183.265 44.805 183.392C44.641 183.514 44.559 183.684 44.559 183.902V185.315C44.559 185.533 44.641 185.706 44.805 185.834C44.975 185.955 45.1876 186.016 45.4427 186.016ZM48.7534 187V182.217H50.1017V183.028H50.1564C50.2414 182.773 50.3872 182.557 50.5937 182.381C50.8002 182.199 51.0826 182.108 51.441 182.108C51.7689 182.108 52.0483 182.19 52.2791 182.354C52.5099 182.518 52.6769 182.758 52.7802 183.073H52.8075C52.85 182.94 52.9138 182.815 52.9988 182.7C53.09 182.578 53.1993 182.475 53.3268 182.39C53.4544 182.305 53.5971 182.238 53.755 182.19C53.9129 182.135 54.083 182.108 54.2652 182.108C54.7268 182.108 55.0791 182.272 55.322 182.6C55.571 182.928 55.6955 183.395 55.6955 184.003V187H54.3472V184.112C54.3472 183.505 54.1285 183.201 53.6912 183.201C53.4908 183.201 53.3086 183.259 53.1446 183.374C52.9806 183.489 52.8986 183.666 52.8986 183.902V187H51.5503V184.112C51.5503 183.505 51.3316 183.201 50.8943 183.201C50.7972 183.201 50.7 183.216 50.6028 183.247C50.5117 183.271 50.4267 183.313 50.3477 183.374C50.2748 183.435 50.2141 183.511 50.1655 183.602C50.123 183.687 50.1017 183.787 50.1017 183.902V187H48.7534ZM57.5682 181.707C57.2949 181.707 57.0945 181.646 56.9669 181.525C56.8455 181.397 56.7847 181.236 56.7847 181.042V180.841C56.7847 180.647 56.8455 180.489 56.9669 180.368C57.0945 180.24 57.2949 180.176 57.5682 180.176C57.8415 180.176 58.0389 180.24 58.1604 180.368C58.2879 180.489 58.3517 180.647 58.3517 180.841V181.042C58.3517 181.236 58.2879 181.397 58.1604 181.525C58.0389 181.646 57.8415 181.707 57.5682 181.707ZM56.894 182.217H58.2424V187H56.894V182.217ZM61.1771 187C60.7095 187 60.3542 186.882 60.1112 186.645C59.8744 186.408 59.7559 186.062 59.7559 185.606V183.265H59.0817V182.217H59.4188C59.601 182.217 59.7255 182.175 59.7924 182.089C59.8592 181.998 59.8926 181.871 59.8926 181.707V180.923H61.1043V182.217H62.0517V183.265H61.1043V185.952H61.9789V187H61.1771ZM28.546 194.217H29.8032L27.9629 199.738C27.8414 200.108 27.6683 200.382 27.4436 200.558C27.225 200.734 26.9091 200.822 26.4961 200.822H25.658V199.774H26.5599L26.7239 199.246L25.0476 194.217H26.3868L27.0883 196.449L27.4345 197.834H27.4892L27.8445 196.449L28.546 194.217ZM32.3575 199.109C32.0052 199.109 31.6894 199.052 31.41 198.936C31.1367 198.821 30.9028 198.654 30.7085 198.435C30.5202 198.217 30.3744 197.952 30.2712 197.643C30.1679 197.333 30.1163 196.987 30.1163 196.604C30.1163 196.221 30.1679 195.875 30.2712 195.565C30.3744 195.256 30.5202 194.994 30.7085 194.782C30.9028 194.563 31.1367 194.396 31.41 194.281C31.6894 194.165 32.0052 194.108 32.3575 194.108C32.7097 194.108 33.0225 194.165 33.2958 194.281C33.5752 194.396 33.809 194.563 33.9973 194.782C34.1917 194.994 34.3405 195.256 34.4437 195.565C34.547 195.875 34.5986 196.221 34.5986 196.604C34.5986 196.987 34.547 197.333 34.4437 197.643C34.3405 197.952 34.1917 198.217 33.9973 198.435C33.809 198.654 33.5752 198.821 33.2958 198.936C33.0225 199.052 32.7097 199.109 32.3575 199.109ZM32.3575 198.043C32.6247 198.043 32.8312 197.961 32.977 197.797C33.1227 197.633 33.1956 197.4 33.1956 197.096V196.121C33.1956 195.817 33.1227 195.584 32.977 195.42C32.8312 195.256 32.6247 195.174 32.3575 195.174C32.0902 195.174 31.8837 195.256 31.7379 195.42C31.5922 195.584 31.5193 195.817 31.5193 196.121V197.096C31.5193 197.4 31.5922 197.633 31.7379 197.797C31.8837 197.961 32.0902 198.043 32.3575 198.043ZM38.3836 198.198H38.338C38.2955 198.32 38.2378 198.435 38.1649 198.544C38.0981 198.654 38.01 198.751 37.9007 198.836C37.7914 198.921 37.6608 198.988 37.509 199.036C37.3632 199.085 37.1931 199.109 36.9988 199.109C36.5068 199.109 36.1333 198.948 35.8782 198.626C35.6292 198.298 35.5047 197.831 35.5047 197.223V194.217H36.853V197.105C36.853 197.397 36.9046 197.621 37.0079 197.779C37.1111 197.937 37.2873 198.016 37.5363 198.016C37.6395 198.016 37.7428 198.001 37.846 197.971C37.9493 197.94 38.0404 197.898 38.1194 197.843C38.1983 197.782 38.2621 197.709 38.3107 197.624C38.3593 197.539 38.3836 197.439 38.3836 197.324V194.217H39.7319V199H38.3836V198.198ZM40.9864 199V194.217H42.3348V195.256H42.3803C42.4046 195.122 42.4471 194.994 42.5079 194.873C42.5686 194.745 42.6476 194.633 42.7447 194.536C42.848 194.439 42.9695 194.363 43.1091 194.308C43.2488 194.247 43.4128 194.217 43.6011 194.217H43.838V195.474H43.5009C43.1061 195.474 42.8115 195.526 42.6172 195.629C42.4289 195.732 42.3348 195.924 42.3348 196.203V199H40.9864ZM48.818 199.109C48.4535 199.109 48.1286 199.052 47.8431 198.936C47.5577 198.815 47.3147 198.648 47.1143 198.435C46.92 198.217 46.7712 197.952 46.6679 197.643C46.5707 197.333 46.5221 196.987 46.5221 196.604C46.5221 196.227 46.5707 195.887 46.6679 195.584C46.7651 195.274 46.9078 195.01 47.0961 194.791C47.2904 194.572 47.5273 194.405 47.8067 194.29C48.0861 194.168 48.4049 194.108 48.7633 194.108C49.1581 194.108 49.4952 194.175 49.7745 194.308C50.06 194.442 50.2908 194.621 50.4669 194.846C50.6491 195.07 50.7797 195.332 50.8587 195.629C50.9437 195.921 50.9862 196.227 50.9862 196.549V196.95H47.916V197.023C47.916 197.339 48.0011 197.591 48.1711 197.779C48.3412 197.961 48.6084 198.053 48.9728 198.053C49.2522 198.053 49.48 197.998 49.6561 197.889C49.8322 197.773 49.9962 197.636 50.1481 197.479L50.8222 198.317C50.6097 198.566 50.3303 198.76 49.9841 198.9C49.644 199.039 49.2553 199.109 48.818 199.109ZM48.7906 195.101C48.5173 195.101 48.3017 195.192 48.1438 195.374C47.9919 195.55 47.916 195.787 47.916 196.085V196.158H49.5923V196.076C49.5923 195.784 49.5255 195.55 49.3919 195.374C49.2644 195.192 49.0639 195.101 48.7906 195.101ZM51.9385 199V194.217H53.2868V195.028H53.3415C53.4265 194.779 53.5753 194.563 53.7879 194.381C54.0005 194.199 54.295 194.108 54.6716 194.108C55.1636 194.108 55.5341 194.272 55.7831 194.6C56.0382 194.928 56.1657 195.395 56.1657 196.003V199H54.8174V196.112C54.8174 195.802 54.7688 195.574 54.6716 195.429C54.5744 195.277 54.4013 195.201 54.1523 195.201C54.043 195.201 53.9367 195.216 53.8334 195.247C53.7302 195.271 53.6361 195.313 53.551 195.374C53.4721 195.435 53.4083 195.511 53.3597 195.602C53.3111 195.687 53.2868 195.787 53.2868 195.902V199H51.9385ZM59.0419 199C58.5742 199 58.2189 198.882 57.976 198.645C57.7391 198.408 57.6207 198.062 57.6207 197.606V195.265H56.9465V194.217H57.2836C57.4658 194.217 57.5903 194.175 57.6571 194.089C57.7239 193.998 57.7573 193.871 57.7573 193.707V192.923H58.969V194.217H59.9165V195.265H58.969V197.952H59.8436V199H59.0419ZM60.8532 199V194.217H62.2015V195.256H62.247C62.2713 195.122 62.3139 194.994 62.3746 194.873C62.4353 194.745 62.5143 194.633 62.6115 194.536C62.7147 194.439 62.8362 194.363 62.9759 194.308C63.1156 194.247 63.2796 194.217 63.4678 194.217H63.7047V195.474H63.3676C62.9728 195.474 62.6783 195.526 62.4839 195.629C62.2956 195.732 62.2015 195.924 62.2015 196.203V199H60.8532ZM67.5232 194.217H68.7804L66.9401 199.738C66.8186 200.108 66.6455 200.382 66.4208 200.558C66.2022 200.734 65.8863 200.822 65.4733 200.822H64.6352V199.774H65.5371L65.7011 199.246L64.0248 194.217H65.364L66.0655 196.449L66.4117 197.834H66.4664L66.8217 196.449L67.5232 194.217Z" fill="#198875"/>
<path d="M237.438 46.9749C237.438 55.5902 234.923 64.0181 230.2 71.224C225.478 78.4299 218.755 84.1003 210.856 87.5392C202.957 90.9781 194.225 92.0359 185.734 90.5827C177.242 89.1295 169.359 85.2285 163.053 79.3586C156.747 73.4887 152.292 65.9054 150.234 57.5393C148.177 49.1733 148.607 40.3886 151.472 32.2635" stroke="#198875" stroke-width="5.46624" stroke-linecap="round"/>
<path d="M237.438 46.9749C237.438 55.5902 234.923 64.0181 230.2 71.224C225.478 78.4299 218.755 84.1003 210.856 87.5392C202.957 90.9781 194.225 92.0359 185.734 90.5827C177.242 89.1295 169.359 85.2285 163.053 79.3586C156.747 73.4887 152.292 65.9054 150.234 57.5393C148.177 49.1733 148.607 40.3886 151.472 32.2635" stroke="#198875" stroke-width="5.46624" stroke-linecap="round"/>
<path d="M91.3356 190.272C91.3356 201.264 87.2438 211.862 79.8574 220.002C72.4709 228.142 62.3188 233.241 51.3786 234.306C40.4385 235.37 29.4938 232.324 20.6766 225.761C11.8594 219.197 5.80124 209.587 3.68218 198.801C1.56313 188.016 3.53497 176.827 9.21358 167.416C14.8922 158.005 23.8709 151.044 34.4006 147.89C44.9303 144.737 56.2569 145.616 66.174 150.356C76.0911 155.097 83.8884 163.359 88.047 173.534" stroke="#198875" stroke-width="5.46624" stroke-linecap="round"/>
<path d="M57.9725 89.8277C46.6072 92.7445 34.5487 91.027 24.4498 85.053C14.3508 79.079 7.03863 69.3378 4.12184 57.9725C1.20506 46.6072 2.92259 34.5487 8.8966 24.4498C14.8706 14.3508 24.6117 7.03863 35.977 4.12184C47.3424 1.20506 59.4009 2.92259 69.4998 8.8966C79.5988 14.8706 86.9109 24.6117 89.8277 35.977C92.7445 47.3424 91.027 59.4009 85.053 69.4998C79.079 79.5988 69.3378 86.9109 57.9725 89.8277L57.9725 89.8277Z" stroke="#F4F4F4" stroke-width="5.46624" stroke-linecap="round"/>
<path d="M237.438 190.222C237.438 198.091 235.339 205.817 231.358 212.605C227.377 219.393 221.657 224.995 214.789 228.836C207.921 232.677 200.153 234.616 192.286 234.454C184.418 234.292 176.736 232.034 170.032 227.914C163.328 223.794 157.844 217.961 154.146 211.015C150.447 204.069 148.668 196.262 148.992 188.4C149.316 180.538 151.731 172.904 155.989 166.286C160.246 159.668 166.191 154.305 173.212 150.751" stroke="#198875" stroke-width="5.46624" stroke-linecap="round"/>
<path d="M91.2165 46.9748C91.2165 57.7506 87.2836 68.1559 80.1562 76.2377C73.0287 84.3196 63.1967 89.5223 52.5054 90.8694" stroke="#198875" stroke-width="5.46624" stroke-linecap="round"/>
<line x1="108" y1="48.5" x2="133" y2="48.5" stroke="#198875"/>
<line x1="108" y1="189.5" x2="133" y2="189.5" stroke="#198875"/>
<line x1="194" y1="107.5" x2="194" y2="132.5" stroke="#198875"/>
</svg>
