<svg width="95" height="598" viewBox="0 0 95 598" fill="none" xmlns="http://www.w3.org/2000/svg">
<line x1="47.6402" y1="444" x2="47.6402" y2="597.644" stroke="white" stroke-width="1.28037" stroke-dasharray="4.27 4.27"/>
<line x1="47.6402" y1="165" x2="47.6402" y2="318.644" stroke="white" stroke-width="1.28037" stroke-dasharray="4.27 4.27"/>
<line x1="47.6402" y1="279" x2="47.6402" y2="432.644" stroke="white" stroke-width="1.28037" stroke-dasharray="4.27 4.27"/>
<line x1="47.6402" y1="2.79834e-08" x2="47.6402" y2="153.644" stroke="white" stroke-width="1.28037" stroke-dasharray="4.27 4.27"/>
<path d="M0.994374 67L0.994374 50.546H8.39632C9.15066 50.546 9.82642 50.6717 10.4236 50.9232C11.0365 51.1589 11.5551 51.5046 11.9794 51.9604C12.4037 52.4004 12.7259 52.9347 12.9459 53.5633C13.1659 54.192 13.2759 54.8834 13.2759 55.6378C13.2759 56.4078 13.1659 57.1072 12.9459 57.7358C12.7259 58.3487 12.4037 58.883 11.9794 59.3388C11.5551 59.7788 11.0365 60.1245 10.4236 60.376C9.82642 60.6117 9.15066 60.7296 8.39632 60.7296H4.10602L4.10602 67H0.994374ZM4.10602 58.0422H8.11344C8.71063 58.0422 9.18209 57.8851 9.52783 57.5708C9.87356 57.2407 10.0464 56.7771 10.0464 56.18V55.0956C10.0464 54.4984 9.87356 54.0427 9.52783 53.7284C9.18209 53.4141 8.71063 53.2569 8.11344 53.2569H4.10602L4.10602 58.0422ZM26.0673 60.0459H19.2075V67H16.0959L16.0959 50.546H19.2075L19.2075 57.2879H26.0673L26.0673 50.546H29.1789L29.1789 67H26.0673V60.0459ZM43.2226 67L41.9025 62.804H36.0564L34.7598 67H31.6011L37.1172 50.546H40.9831L46.4521 67H43.2226ZM39.0266 53.3748H38.9087L36.8107 60.1402H41.1481L39.0266 53.3748ZM53.9925 67.2829C52.5781 67.2829 51.3759 67.0314 50.3858 66.5285C49.4115 66.0256 48.5707 65.3656 47.8635 64.5484L49.9615 62.5211C50.5273 63.1812 51.1559 63.6841 51.8474 64.0298C52.5546 64.3755 53.3325 64.5484 54.1811 64.5484C55.1398 64.5484 55.8627 64.3441 56.3498 63.9355C56.837 63.5112 57.0806 62.9454 57.0806 62.2382C57.0806 61.6882 56.9234 61.2403 56.6091 60.8946C56.2948 60.5488 55.7055 60.2974 54.8412 60.1402L53.2853 59.9045C50.0008 59.3859 48.3586 57.7908 48.3586 55.1192C48.3586 54.3806 48.4921 53.7126 48.7593 53.1155C49.0422 52.5183 49.4429 52.0075 49.9615 51.5832C50.4801 51.1589 51.1009 50.8367 51.8238 50.6167C52.5624 50.381 53.3953 50.2631 54.3226 50.2631C55.5641 50.2631 56.6484 50.4674 57.5756 50.876C58.5028 51.2846 59.2965 51.8897 59.9565 52.6911L57.8349 54.6949C57.4263 54.192 56.9313 53.7834 56.3498 53.4691C55.7684 53.1548 55.0376 52.9976 54.1575 52.9976C53.2618 52.9976 52.586 53.1705 52.1303 53.5162C51.6902 53.8462 51.4702 54.3177 51.4702 54.9306C51.4702 55.5592 51.6509 56.0228 52.0124 56.3214C52.3738 56.62 52.9553 56.84 53.7568 56.9814L55.289 57.2643C56.9549 57.5629 58.1807 58.0972 58.9664 58.8673C59.7679 59.6216 60.1687 60.6824 60.1687 62.0497C60.1687 62.8354 60.0272 63.5505 59.7444 64.1948C59.4772 64.8234 59.0765 65.3735 58.5421 65.8449C58.0235 66.3007 57.3792 66.6543 56.6091 66.9057C55.8548 67.1572 54.9826 67.2829 53.9925 67.2829ZM63.2881 67V50.546H74.1317V53.304H66.3997V57.2879H73.2359V60.0459H66.3997V64.242H74.1317V67H63.2881ZM83.2058 67V64.4777H87.7318V52.7854H87.5197L83.9366 57.0286L82.0036 55.402L86.0817 50.546H90.7728V64.4777H94.5445V67H83.2058Z" fill="black" fill-opacity="0.15"/>
<path d="M0.994374 226L0.994374 209.546H8.39632C9.15066 209.546 9.82642 209.672 10.4236 209.923C11.0365 210.159 11.5551 210.505 11.9794 210.96C12.4037 211.4 12.7259 211.935 12.9459 212.563C13.1659 213.192 13.2759 213.883 13.2759 214.638C13.2759 215.408 13.1659 216.107 12.9459 216.736C12.7259 217.349 12.4037 217.883 11.9794 218.339C11.5551 218.779 11.0365 219.125 10.4236 219.376C9.82642 219.612 9.15066 219.73 8.39632 219.73H4.10602L4.10602 226H0.994374ZM4.10602 217.042H8.11344C8.71063 217.042 9.18209 216.885 9.52783 216.571C9.87356 216.241 10.0464 215.777 10.0464 215.18V214.096C10.0464 213.498 9.87356 213.043 9.52783 212.728C9.18209 212.414 8.71063 212.257 8.11344 212.257H4.10602L4.10602 217.042ZM26.0673 219.046H19.2075V226H16.0959L16.0959 209.546H19.2075L19.2075 216.288H26.0673L26.0673 209.546H29.1789L29.1789 226H26.0673V219.046ZM43.2226 226L41.9025 221.804H36.0564L34.7598 226H31.6011L37.1172 209.546H40.9831L46.4521 226H43.2226ZM39.0266 212.375H38.9087L36.8107 219.14H41.1481L39.0266 212.375ZM53.9925 226.283C52.5781 226.283 51.3759 226.031 50.3858 225.529C49.4115 225.026 48.5707 224.366 47.8635 223.548L49.9615 221.521C50.5273 222.181 51.1559 222.684 51.8474 223.03C52.5546 223.376 53.3325 223.548 54.1811 223.548C55.1398 223.548 55.8627 223.344 56.3498 222.936C56.837 222.511 57.0806 221.945 57.0806 221.238C57.0806 220.688 56.9234 220.24 56.6091 219.895C56.2948 219.549 55.7055 219.297 54.8412 219.14L53.2853 218.905C50.0008 218.386 48.3586 216.791 48.3586 214.119C48.3586 213.381 48.4921 212.713 48.7593 212.115C49.0422 211.518 49.4429 211.008 49.9615 210.583C50.4801 210.159 51.1009 209.837 51.8238 209.617C52.5624 209.381 53.3953 209.263 54.3226 209.263C55.5641 209.263 56.6484 209.467 57.5756 209.876C58.5028 210.285 59.2965 210.89 59.9565 211.691L57.8349 213.695C57.4263 213.192 56.9313 212.783 56.3498 212.469C55.7684 212.155 55.0376 211.998 54.1575 211.998C53.2618 211.998 52.586 212.17 52.1303 212.516C51.6902 212.846 51.4702 213.318 51.4702 213.931C51.4702 214.559 51.6509 215.023 52.0124 215.321C52.3738 215.62 52.9553 215.84 53.7568 215.981L55.289 216.264C56.9549 216.563 58.1807 217.097 58.9664 217.867C59.7679 218.622 60.1687 219.682 60.1687 221.05C60.1687 221.835 60.0272 222.55 59.7444 223.195C59.4772 223.823 59.0765 224.373 58.5421 224.845C58.0235 225.301 57.3792 225.654 56.6091 225.906C55.8548 226.157 54.9826 226.283 53.9925 226.283ZM63.2881 226V209.546H74.1317V212.304H66.3997V216.288H73.2359V219.046H66.3997V223.242H74.1317V226H63.2881ZM93.9316 226H82.5222V223.124L87.6847 218.598C88.5648 217.828 89.2091 217.137 89.6177 216.524C90.0263 215.895 90.2306 215.219 90.2306 214.496V214.19C90.2306 213.467 89.9949 212.917 89.5234 212.54C89.0519 212.147 88.4783 211.95 87.8026 211.95C86.9539 211.95 86.3096 212.194 85.8696 212.681C85.4295 213.153 85.1152 213.726 84.9267 214.402L82.2393 213.365C82.4122 212.815 82.6558 212.296 82.9701 211.809C83.2844 211.306 83.6773 210.866 84.1487 210.489C84.6359 210.112 85.2017 209.813 85.846 209.593C86.4903 209.373 87.229 209.263 88.0619 209.263C88.9262 209.263 89.6963 209.389 90.372 209.64C91.0478 209.876 91.6135 210.214 92.0693 210.654C92.5408 211.094 92.8943 211.613 93.1301 212.21C93.3815 212.807 93.5072 213.459 93.5072 214.166C93.5072 214.858 93.3972 215.486 93.1772 216.052C92.9572 216.618 92.6586 217.16 92.2814 217.679C91.9043 218.182 91.4643 218.669 90.9614 219.14C90.4585 219.596 89.9241 220.06 89.3584 220.531L85.8931 223.383H93.9316V226Z" fill="black" fill-opacity="0.15"/>
</svg>
