<svg width="44" height="44" viewBox="0 0 44 44" fill="none" xmlns="http://www.w3.org/2000/svg">
<path fill-rule="evenodd" clip-rule="evenodd" d="M22 42.1666C10.8623 42.1666 1.83337 33.1377 1.83337 21.9999C1.83337 10.8622 10.8623 1.83325 22 1.83325C33.1378 1.83325 42.1667 10.8622 42.1667 21.9999C42.1667 33.1377 33.1378 42.1666 22 42.1666ZM22 38.4999C31.1127 38.4999 38.5 31.1126 38.5 21.9999C38.5 12.8872 31.1127 5.49992 22 5.49992C12.8873 5.49992 5.50004 12.8872 5.50004 21.9999C5.50004 31.1126 12.8873 38.4999 22 38.4999ZM23.8334 31.1666V19.0927L28.037 23.2963L30.6297 20.7036L22.0001 12.0739L13.3704 20.7036L15.9631 23.2963L20.1667 19.0927V31.1666H23.8334Z" fill="#198875"/>
</svg>
