<svg width="45" height="44" viewBox="0 0 45 44" fill="none" xmlns="http://www.w3.org/2000/svg">
<path fill-rule="evenodd" clip-rule="evenodd" d="M22.1667 43.9999C10.0165 43.9999 0.16671 34.1502 0.16671 21.9999C0.16671 9.84967 10.0165 -9.15527e-05 22.1667 -9.15527e-05C34.317 -9.15527e-05 44.1667 9.84967 44.1667 21.9999C44.1667 34.1502 34.317 43.9999 22.1667 43.9999ZM22.1667 39.9999C32.1078 39.9999 40.1667 31.941 40.1667 21.9999C40.1667 12.0588 32.1078 3.99991 22.1667 3.99991C12.2255 3.99991 4.16671 12.0588 4.16671 21.9999C4.16671 31.941 12.2255 39.9999 22.1667 39.9999ZM24.1667 31.9999V18.8284L28.7525 23.4141L31.5809 20.5857L22.1668 11.1715L12.7526 20.5857L15.581 23.4141L20.1667 18.8284V31.9999H24.1667Z" fill="white"/>
</svg>
