<svg width="29" height="29" viewBox="0 0 29 29" fill="none" xmlns="http://www.w3.org/2000/svg">
<path fill-rule="evenodd" clip-rule="evenodd" d="M25.3346 5.95342L26.9999 6.1479L26.2513 7.6481C25.8863 8.37969 25.5209 9.11128 25.1551 9.84287C25.1118 9.99782 25.0355 10.1337 24.9228 10.3105C24.8757 10.3844 24.7148 10.6195 24.7072 10.6308C24.6647 10.6945 24.6333 10.7447 24.6107 10.785V13.5965C24.6107 20.7908 17.6483 25.3625 11.0731 25.3625C9.72765 25.3625 8.70542 25.2981 7.53491 25.0426C5.60862 24.6223 4.17507 23.7867 3.51909 22.3263L2.84372 20.8228L4.48502 20.6719C5.96981 20.5353 7.25717 20.2525 8.2458 19.8737C5.53166 19.4372 4.01067 18.2451 4.01067 16.0064V14.8294H5.18775C5.44637 14.8294 5.67957 14.8084 5.88805 14.7699C3.85106 13.5519 2.83078 11.5981 2.83078 8.88819C2.83056 8.77268 2.83056 8.77268 2.82987 8.64918C2.82221 7.28324 2.89558 6.55337 3.26951 5.62186C3.50916 5.02486 3.85556 4.47219 4.32177 3.96579L5.21001 3.00098L6.07359 3.98792C8.9195 7.24037 11.7327 9.21357 14.6051 9.45224C14.6174 6.45106 16.8855 4.17985 19.9022 4.17985C21.3085 4.17985 22.5841 4.71365 23.5866 5.67616C24.1353 5.78891 24.718 5.88141 25.3346 5.95342ZM22.7322 7.90009L22.3714 7.81838L22.1222 7.54492C21.5196 6.88372 20.7633 6.5341 19.9022 6.5341C18.1801 6.5341 16.9592 7.76107 16.9592 9.4768C16.9592 9.7572 16.952 9.93339 16.917 10.165C16.7776 11.089 16.2594 11.831 15.1935 11.831C11.6646 11.831 8.48094 9.94045 5.37643 6.71155C5.21638 7.19807 5.17874 7.69817 5.18399 8.63607C5.1847 8.76151 5.1847 8.76151 5.18495 8.88826C5.18495 11.2989 6.16159 12.6176 8.47401 13.3525L9.29454 13.6133V14.4743C9.29454 15.5184 8.30539 16.5012 6.85813 16.9414C7.52157 17.4448 8.87838 17.7164 11.0735 17.7164H12.2506V18.8935C12.2506 20.5799 10.3128 21.9004 7.38554 22.5899C8.34019 22.8824 9.61129 23.0084 11.0731 23.0084C16.5047 23.0084 22.2565 19.2316 22.2565 13.5966V10.6539C22.2565 10.3081 22.3568 10.0079 22.5233 9.69582C22.5884 9.5738 22.6601 9.45747 22.7486 9.32478C22.7652 9.29981 22.827 9.2093 22.8761 9.13694L22.9694 8.95037C23.1206 8.64805 23.2717 8.34573 23.4227 8.04341C23.188 7.99894 22.9578 7.95117 22.7322 7.90009Z" fill="white"/>
</svg>
