<svg width="179" height="68" viewBox="0 0 179 68" fill="none" xmlns="http://www.w3.org/2000/svg">
<circle cx="31.4207" cy="31.8904" r="31.4207" fill="#A1202E"/>
<path d="M16.7899 54L8.54771 17.5885H16.3725L19.8155 35.0639L21.7456 45.184H21.9021L24.1974 35.0639L28.2141 17.5885H36.8736L40.9425 35.0639L43.1856 45.184H43.3421L45.2722 35.0639L48.7673 17.5885H56.2792L47.8283 54H38.8037L34.2131 34.2814L32.4395 26.3001H32.283L30.4572 34.2814L25.8667 54H16.7899ZM70.4503 23.6918C68.8853 23.6918 67.7376 23.3441 67.0073 22.6485C66.3118 21.9182 65.964 20.9966 65.964 19.8838V18.7361C65.964 17.6232 66.3118 16.719 67.0073 16.0235C67.7376 15.2932 68.8853 14.928 70.4503 14.928C72.0152 14.928 73.1455 15.2932 73.841 16.0235C74.5713 16.719 74.9365 17.6232 74.9365 18.7361V19.8838C74.9365 20.9966 74.5713 21.9182 73.841 22.6485C73.1455 23.3441 72.0152 23.6918 70.4503 23.6918ZM66.59 26.6131H74.3105V54H66.59V26.6131ZM101.861 54.626C99.3917 54.626 97.1659 54.2434 95.1836 53.4783C93.2013 52.6785 91.5147 51.5134 90.1236 49.9833C88.7325 48.4183 87.6544 46.4882 86.8893 44.1929C86.1242 41.8628 85.7417 39.1502 85.7417 36.0551C85.7417 32.9947 86.1242 30.2821 86.8893 27.9172C87.6544 25.5176 88.7325 23.5179 90.1236 21.9182C91.5147 20.2837 93.2013 19.0491 95.1836 18.2145C97.1659 17.3798 99.3917 16.9625 101.861 16.9625C105.234 16.9625 108.016 17.658 110.207 19.0491C112.398 20.4054 114.154 22.5616 115.476 25.5176L108.642 29.0649C108.155 27.5347 107.39 26.3175 106.347 25.4133C105.339 24.4743 103.843 24.0048 101.861 24.0048C99.5308 24.0048 97.6528 24.7699 96.2269 26.3001C94.8359 27.7955 94.1403 29.9865 94.1403 32.873V38.7155C94.1403 41.602 94.8359 43.8103 96.2269 45.3405C97.6528 46.8359 99.5308 47.5836 101.861 47.5836C103.808 47.5836 105.356 47.062 106.504 46.0187C107.686 44.9406 108.555 43.6538 109.112 42.1584L115.58 45.9143C114.224 48.6965 112.433 50.8527 110.207 52.3829C108.016 53.8783 105.234 54.626 101.861 54.626ZM134.275 54H126.346V17.5885H143.612C145.282 17.5885 146.794 17.8667 148.151 18.4231C149.507 18.9795 150.655 19.7794 151.594 20.8227C152.567 21.8313 153.315 23.0485 153.837 24.4743C154.358 25.9002 154.619 27.4825 154.619 29.2214C154.619 31.6905 154.063 33.8467 152.95 35.6899C151.872 37.5331 150.22 38.872 147.994 39.7066L155.141 54H146.325L139.961 40.6456H134.275V54ZM142.621 33.9684C143.804 33.9684 144.725 33.6728 145.386 33.0816C146.082 32.4556 146.429 31.5514 146.429 30.369V28.0737C146.429 26.8913 146.082 26.0045 145.386 25.4133C144.725 24.7873 143.804 24.4743 142.621 24.4743H134.275V33.9684H142.621Z" fill="#F3B93D"/>
</svg>
