<svg width="100" height="38" viewBox="0 0 100 38" fill="none" xmlns="http://www.w3.org/2000/svg">
<circle cx="17.5402" cy="17.8024" r="17.5402" fill="#A1202E"/>
<path d="M9.37271 30L4.77163 9.67369H9.13975L11.0617 19.4292L12.1392 25.0786H12.2266L13.5079 19.4292L15.7502 9.67369H20.5842L22.8556 19.4292L24.1078 25.0786H24.1952L25.2727 19.4292L27.2238 9.67369H31.4172L26.6996 30H21.6617L19.0991 18.9923L18.109 14.5369H18.0216L17.0024 18.9923L14.4397 30H9.37271ZM39.328 13.0808C38.4544 13.0808 37.8137 12.8867 37.406 12.4984C37.0177 12.0907 36.8236 11.5762 36.8236 10.955V10.3143C36.8236 9.6931 37.0177 9.18834 37.406 8.80006C37.8137 8.39237 38.4544 8.18853 39.328 8.18853C40.2016 8.18853 40.8326 8.39237 41.2208 8.80006C41.6285 9.18834 41.8324 9.6931 41.8324 10.3143V10.955C41.8324 11.5762 41.6285 12.0907 41.2208 12.4984C40.8326 12.8867 40.2016 13.0808 39.328 13.0808ZM37.1731 14.7116H41.4829V30H37.1731V14.7116ZM56.8626 30.3494C55.4842 30.3494 54.2417 30.1359 53.1351 29.7088C52.0285 29.2623 51.087 28.6119 50.3104 27.7577C49.5339 26.8841 48.932 25.8066 48.5049 24.5253C48.0778 23.2246 47.8643 21.7103 47.8643 19.9824C47.8643 18.274 48.0778 16.7597 48.5049 15.4396C48.932 14.1 49.5339 12.9838 50.3104 12.0907C51.087 11.1783 52.0285 10.4891 53.1351 10.0231C54.2417 9.5572 55.4842 9.32424 56.8626 9.32424C58.7457 9.32424 60.2988 9.71251 61.5219 10.4891C62.745 11.2462 63.7254 12.4499 64.4631 14.1L60.6483 16.0803C60.3765 15.2261 59.9494 14.5466 59.367 14.0418C58.804 13.5176 57.9692 13.2555 56.8626 13.2555C55.5619 13.2555 54.5135 13.6826 53.7175 14.5369C52.941 15.3717 52.5527 16.5947 52.5527 18.2061V21.4676C52.5527 23.079 52.941 24.3117 53.7175 25.1659C54.5135 26.0007 55.5619 26.4181 56.8626 26.4181C57.9498 26.4181 58.8137 26.1269 59.4543 25.5445C60.1144 24.9427 60.5998 24.2244 60.9104 23.3896L64.5214 25.4863C63.7642 27.0394 62.7644 28.243 61.5219 29.0973C60.2988 29.9321 58.7457 30.3494 56.8626 30.3494ZM74.9573 30H70.5309V9.67369H80.1699C81.1018 9.67369 81.9463 9.829 82.7034 10.1396C83.4606 10.4502 84.1012 10.8968 84.6254 11.4792C85.169 12.0422 85.5864 12.7217 85.8776 13.5176C86.1688 14.3136 86.3144 15.1969 86.3144 16.1676C86.3144 17.546 86.0038 18.7497 85.3825 19.7786C84.7807 20.8075 83.8585 21.555 82.6161 22.0209L86.6056 30H81.6842L78.1315 22.5451H74.9573V30ZM79.6166 18.8176C80.2767 18.8176 80.7912 18.6526 81.16 18.3226C81.5483 17.9731 81.7424 17.4684 81.7424 16.8083V15.527C81.7424 14.8669 81.5483 14.3718 81.16 14.0418C80.7912 13.6924 80.2767 13.5176 79.6166 13.5176H74.9573V18.8176H79.6166Z" fill="#F3B93D"/>
</svg>
