<svg width="162" height="104" viewBox="0 0 162 104" fill="none" xmlns="http://www.w3.org/2000/svg">
<path d="M70.1828 36.7557C70.1828 36.7557 65.5309 31.6467 62.3596 28.1528C59.1882 24.6293 57.534 25.9841 57.1922 28.2838C56.854 30.7276 55.4283 42.077 54.964 45.7075C54.5144 49.0723 56.7444 48.022 58.3017 46.9995C60.0656 45.8625 68.4793 40.1279 70.0001 39.0629C71.4624 38.0607 70.872 37.4995 70.1828 36.7686V36.7557Z" fill="#EAD418"/>
<path d="M77.4545 45.3284C72.6474 50.7233 70.4913 53.1154 66.7481 57.1511C62.9024 61.2705 65.9068 61.9999 68.2485 61.9597C70.4913 61.9388 87.4611 61.9789 92.4326 61.9998C97.4041 62.0208 96.296 59.873 93.7068 57.2122C91.1371 54.595 84.2764 47.478 81.8905 44.9812C79.593 42.5856 77.4545 45.3302 77.4545 45.3302V45.3284Z" fill="#1E0F6B"/>
<path d="M61.2595 14.2933C62.1044 13.606 74.2162 3.16634 76.2178 1.42011C79.716 -1.63084 82.1985 0.67173 81.8773 4.19648C81.5765 7.57586 80.6908 15.5658 80.4105 18.134C80.1282 20.7398 79.911 21.5564 75.2282 20.6339C70.4395 19.681 64.1765 18.5306 62.446 18.2183C58.7584 17.5004 59.7555 15.5442 61.2595 14.2933Z" fill="#74AE2C"/>
<path d="M90.5784 34.1372C91.1095 33.4243 95.66 27.7207 97.6006 25.2163C99.5413 22.712 102.36 24.46 102.864 26.986C103.31 29.0887 106.376 43.1232 106.865 45.3707C107.267 47.2037 104.541 47.5185 102.613 46.1705C100.265 44.5419 93.9631 40.219 91.2186 38.2593C89.609 37.1265 89.5817 35.5034 90.5802 34.1372H90.5784Z" fill="#AB1163"/>
<path d="M151.709 101.964C153.716 103.531 155.732 103.891 158.232 103.891H161.422V81.1683H157.077V99.4694C156.168 99.4694 155.42 99.4931 154.57 99.0244C151.162 97.1309 147.112 86.643 142.437 83.0642C140.428 81.5233 138.413 81.1399 135.886 81.1707H132.723V103.893H137.074V85.5684C137.978 85.5684 138.731 85.5684 139.573 86.0418C142.989 87.9093 147.031 98.3948 151.709 101.974V101.964ZM91.0062 84.9223C93.2595 84.9223 95.2666 86.2974 95.243 88.7093C95.269 91.1047 93.3139 92.4799 91.0062 92.4799H73.943C73.4978 92.4811 73.0712 92.6582 72.756 92.9725C72.4408 93.2868 72.2626 93.7129 72.2601 94.158V103.862H76.6176V97.3179C76.6167 97.1808 76.6429 97.0449 76.6946 96.9181C76.7464 96.7912 76.8228 96.6758 76.9194 96.5786C77.016 96.4813 77.1309 96.4041 77.2574 96.3515C77.3839 96.2988 77.5196 96.2717 77.6567 96.2717H90.76C95.6028 96.2433 99.7828 93.9876 99.7828 88.6762C99.7828 83.3648 95.572 81.1659 90.76 81.1659H72.2601V84.9365L91.0062 84.9223ZM5.79662 81.1517H0L10.682 92.2905L10.8406 92.4609L10.682 92.6527L0 103.881H5.64513L13.2193 95.4622L13.411 95.2255L13.6075 95.4622L21.2077 103.881H26.8292L16.1543 92.6669L15.9815 92.4751L16.1543 92.3047L26.8292 81.1659H21.0302L13.598 89.4502L13.4016 89.6727L13.2099 89.4502L5.79662 81.1517ZM48.4771 84.9223C50.7376 84.9223 52.7376 86.2974 52.7211 88.7093C52.7424 91.1047 50.7944 92.4799 48.4771 92.4799H31.4352C30.9901 92.4811 30.5635 92.6582 30.2483 92.9725C29.9331 93.2868 29.7548 93.7129 29.7523 94.158V103.862H34.1028V97.3179C34.1018 97.1806 34.1281 97.0446 34.18 96.9175C34.232 96.7905 34.3086 96.675 34.4054 96.5777C34.5022 96.4804 34.6174 96.4033 34.7442 96.3508C34.871 96.2983 35.007 96.2714 35.1442 96.2717H48.2404C53.0856 96.2433 57.2727 93.9876 57.2727 88.6762C57.2727 83.3648 53.0619 81.1659 48.2404 81.1659H29.75V84.9365L48.4771 84.9223ZM68.8683 92.4964H60.6763V96.2386H68.8754L68.8683 92.4964ZM130.101 85.2631V81.1659H113.352C112.403 81.1621 111.455 81.2167 110.512 81.3293C109.718 81.4422 108.936 81.6268 108.176 81.8808C107.511 82.1084 106.876 82.4135 106.282 82.7896C105.741 83.1346 105.249 83.5519 104.82 84.0299C104.381 84.4982 104.011 85.0257 103.719 85.5968C103.41 86.2227 103.161 86.8765 102.976 87.5495C102.781 88.3113 102.634 89.0844 102.535 89.8644C102.446 90.75 102.402 91.6395 102.403 92.5296C102.403 93.4764 102.453 94.345 102.535 95.1995C102.631 95.9691 102.778 96.7314 102.976 97.4812C103.156 98.1573 103.405 98.8132 103.719 99.4387C104.013 100.017 104.383 100.554 104.82 101.034C105.251 101.509 105.743 101.925 106.282 102.272C106.878 102.637 107.513 102.932 108.176 103.152C108.933 103.418 109.716 103.601 110.512 103.699C111.453 103.828 112.402 103.894 113.352 103.896H130.108V99.7393H113.352C112.808 99.7393 112.247 99.7109 111.783 99.6635C111.319 99.6162 110.848 99.5215 110.434 99.4387C110.064 99.3381 109.705 99.1985 109.364 99.0221C109.045 98.8696 108.747 98.6754 108.479 98.4445C108.237 98.2294 108.015 97.9917 107.818 97.7345C107.623 97.4628 107.464 97.1668 107.345 96.854C107.212 96.5337 107.1 96.2047 107.011 95.8693C106.931 95.4979 106.877 95.1215 106.848 94.7427L106.82 94.4326H130.103V90.6029H106.831L106.86 90.3236C106.901 89.5847 107.069 88.8584 107.357 88.1768C107.478 87.8664 107.637 87.5722 107.83 87.301C108.031 87.047 108.252 86.8095 108.491 86.5909C108.76 86.3624 109.057 86.1699 109.376 86.0181C109.714 85.8373 110.074 85.6989 110.446 85.6063C110.879 85.491 111.321 85.4079 111.767 85.3578C112.297 85.3016 112.831 85.2748 113.364 85.2773L130.101 85.2631Z" fill="white"/>
</svg>

