<svg width="351" height="110" viewBox="0 0 351 110" fill="none" xmlns="http://www.w3.org/2000/svg">
<path d="M323.321 75.0592C326.007 77.1556 328.705 77.637 332.049 77.637H336.318V47.2351H330.504V71.7213C329.288 71.7213 328.287 71.7529 327.15 71.1259C322.59 68.5924 317.171 54.56 310.917 49.7717C308.228 47.7101 305.533 47.1971 302.151 47.2382H297.92V77.6402H303.74V53.1223C304.95 53.1223 305.957 53.1223 307.085 53.7556C311.654 56.2543 317.063 70.2835 323.321 75.0718V75.0592ZM242.104 52.2577C245.119 52.2577 247.804 54.0977 247.772 57.3247C247.807 60.5296 245.191 62.3695 242.104 62.3695H219.274C218.678 62.3712 218.107 62.6081 217.686 63.0286C217.264 63.4492 217.025 64.0193 217.022 64.6148V77.599H222.852V68.8426C222.851 68.6592 222.886 68.4774 222.955 68.3076C223.025 68.1379 223.127 67.9835 223.256 67.8534C223.385 67.7233 223.539 67.62 223.708 67.5496C223.878 67.4791 224.059 67.4428 224.243 67.4428H241.774C248.254 67.4048 253.846 64.3868 253.846 57.2804C253.846 50.1739 248.213 47.2319 241.774 47.2319H217.022V52.2767L242.104 52.2577ZM128.096 47.2129H120.341L134.633 62.1162L134.845 62.3442L134.633 62.6007L120.341 77.6243H127.894L138.028 66.3598L138.284 66.0431L138.547 66.3598L148.716 77.6243H156.237L141.955 62.6197L141.724 62.3632L141.955 62.1352L156.237 47.2319H148.478L138.534 58.3159L138.272 58.6136L138.015 58.3159L128.096 47.2129ZM185.201 52.2577C188.226 52.2577 190.902 54.0977 190.88 57.3247C190.908 60.5296 188.302 62.3695 185.201 62.3695H162.4C161.804 62.3712 161.234 62.6081 160.812 63.0286C160.39 63.4492 160.152 64.0193 160.148 64.6148V77.599H165.969V68.8426C165.968 68.659 166.003 68.4769 166.072 68.3069C166.142 68.1369 166.244 67.9824 166.374 67.8523C166.504 67.7221 166.658 67.6189 166.827 67.5486C166.997 67.4784 167.179 67.4424 167.362 67.4428H184.885C191.367 67.4048 196.97 64.3868 196.97 57.2804C196.97 50.1739 191.336 47.2319 184.885 47.2319H160.145V52.2767L185.201 52.2577ZM212.484 62.3917H201.523V67.3985H212.493L212.484 62.3917ZM294.411 52.7137V47.2319H272.002C270.732 47.2268 269.463 47.2998 268.202 47.4504C267.14 47.6015 266.094 47.8485 265.076 48.1883C264.187 48.4929 263.337 48.901 262.543 49.4044C261.818 49.8659 261.159 50.4242 260.586 51.0638C259.999 51.6904 259.503 52.3961 259.113 53.1603C258.699 53.9976 258.366 54.8725 258.119 55.7729C257.858 56.7921 257.661 57.8265 257.529 58.8701C257.41 60.055 257.351 61.2452 257.352 62.436C257.352 63.7028 257.419 64.865 257.529 66.0082C257.657 67.0379 257.854 68.0578 258.119 69.0611C258.36 69.9657 258.693 70.8433 259.113 71.6801C259.506 72.4543 260.001 73.1722 260.586 73.8146C261.163 74.4497 261.821 75.0065 262.543 75.4708C263.339 75.959 264.189 76.3543 265.076 76.6489C266.089 77.0043 267.137 77.2496 268.202 77.3805C269.461 77.5529 270.731 77.6407 272.002 77.6433H294.42V72.0823H272.002C271.274 72.0823 270.523 72.0443 269.902 71.981C269.282 71.9176 268.652 71.791 268.097 71.6801C267.602 71.5456 267.122 71.3587 266.666 71.1227C266.239 70.9187 265.84 70.6589 265.482 70.35C265.157 70.0622 264.862 69.7441 264.598 69.4C264.336 69.0365 264.124 68.6404 263.965 68.2219C263.786 67.7934 263.637 67.3532 263.518 66.9045C263.411 66.4076 263.338 65.9039 263.3 65.397L263.262 64.9822H294.414V59.8582H263.277L263.315 59.4845C263.37 58.4959 263.595 57.5242 263.98 56.6122C264.142 56.1969 264.355 55.8033 264.614 55.4404C264.882 55.1005 265.178 54.7828 265.497 54.4903C265.857 54.1846 266.255 53.927 266.682 53.724C267.134 53.4819 267.615 53.2969 268.113 53.1729C268.693 53.0186 269.284 52.9075 269.88 52.8404C270.59 52.7653 271.304 52.7294 272.018 52.7327L294.411 52.7137Z" fill="black"/>
<path d="M346.12 47.2307C346.761 47.2241 347.397 47.348 347.988 47.5949C348.578 47.8509 349.114 48.2138 349.572 48.6653C350.029 49.1222 350.39 49.6655 350.636 50.2636C350.881 50.8617 351.005 51.5025 351 52.1489C350.991 52.7892 350.869 53.4229 350.639 54.0205C350.379 54.6068 350.017 55.1428 349.572 55.6039C349.134 56.0767 348.591 56.441 347.988 56.668C347.401 56.933 346.764 57.0701 346.12 57.0702C345.464 57.0782 344.815 56.9408 344.22 56.668C343.604 56.441 343.049 56.0772 342.595 55.6039C342.139 55.1526 341.778 54.6141 341.534 54.0205C341.3 53.4236 341.173 52.7899 341.16 52.1489C341.171 51.5044 341.297 50.8671 341.534 50.2677C341.785 49.678 342.145 49.1409 342.595 48.6843C343.068 48.2329 343.618 47.8703 344.22 47.6139C344.82 47.3598 345.468 47.2357 346.12 47.2497V47.2307ZM344.125 54.4733V49.6977H346.3C346.635 49.6825 346.969 49.721 347.291 49.8117C347.404 49.8606 347.505 49.9342 347.586 50.0271C347.7 50.0949 347.79 50.1968 347.843 50.3184C347.916 50.4104 347.966 50.5191 347.988 50.6351C348.034 50.769 348.061 50.9086 348.067 51.05C348.061 51.2214 348.035 51.3915 347.988 51.5567C347.916 51.7081 347.818 51.8462 347.7 51.9652C347.576 52.0913 347.428 52.1923 347.266 52.2629C347.149 52.2977 347.038 52.3294 346.924 52.3705C346.981 52.396 347.032 52.4338 347.073 52.4814C347.184 52.5922 347.266 52.6682 347.39 52.7759C347.463 52.9052 347.546 53.029 347.637 53.1464L348.451 54.4322L348.52 54.5779H347.516L347.488 54.505L346.892 53.5549C346.782 53.3998 346.718 53.2984 346.633 53.1876C346.566 53.0736 346.497 52.9659 346.459 52.8963H346.421C346.384 52.8265 346.334 52.7642 346.275 52.7126C346.237 52.6746 346.193 52.6366 346.158 52.5986C346.088 52.5986 346.05 52.5606 346.018 52.5606C345.98 52.5257 345.942 52.5257 345.901 52.4877H344.951V54.5842H344.147L344.125 54.4733ZM344.929 51.753H346.566C346.633 51.7182 346.75 51.7182 346.829 51.6802C346.908 51.6422 346.934 51.6042 347.01 51.5662C347.055 51.5281 347.09 51.4791 347.111 51.4236C347.163 51.3701 347.204 51.308 347.234 51.24V51.0595C347.245 50.9708 347.231 50.8809 347.193 50.7998C347.157 50.7184 347.108 50.6435 347.048 50.5781C346.96 50.5071 346.859 50.4553 346.75 50.4261C346.62 50.3877 346.483 50.3727 346.348 50.3818H344.938L344.929 51.753ZM349.138 49.1023C348.337 48.3026 347.252 47.8528 346.12 47.8514C345.552 47.8598 344.991 47.967 344.46 48.1681C343.957 48.3956 343.496 48.706 343.095 49.0865C342.701 49.4893 342.388 49.9646 342.174 50.4863C341.96 51.0019 341.852 51.5556 341.857 52.114C341.87 53.2417 342.318 54.3206 343.108 55.1257C343.499 55.5185 343.963 55.8314 344.473 56.0473C344.997 56.2733 345.562 56.3866 346.132 56.3798C346.687 56.3824 347.236 56.2691 347.744 56.0473C348.266 55.8306 348.743 55.518 349.15 55.1257C349.922 54.3118 350.357 53.2356 350.366 52.114C350.361 51.5566 350.254 51.0049 350.05 50.4863C349.819 49.9748 349.511 49.5026 349.135 49.0865L349.138 49.1023Z" fill="black"/>
<path d="M26.4691 64.7641C26.4691 64.7641 18.4094 55.9982 12.9149 50.0033C7.42041 43.9577 4.55439 46.2822 3.96219 50.2281C3.37632 54.4211 0.906163 73.8941 0.101778 80.1234C-0.677271 85.8966 3.18631 84.0946 5.88448 82.3402C8.94051 80.3894 23.5176 70.5499 26.1524 68.7226C28.6859 67.003 27.663 66.0403 26.4691 64.7862V64.7641Z" fill="#EAD418"/>
<path d="M40.4191 79.4961C31.8053 89.288 27.9417 93.6298 21.2343 100.955C14.3432 108.432 19.7268 109.756 23.9229 109.683C27.9417 109.645 58.3499 109.718 67.2583 109.756C76.1667 109.794 74.1811 105.895 69.5417 101.066C64.937 96.3153 52.6433 83.3977 48.368 78.8659C44.2511 74.5178 40.4191 79.4993 40.4191 79.4993V79.4961Z" fill="#1E0F6B"/>
<path d="M12.2846 25.2219C13.7255 24.0089 34.383 5.58728 37.7969 2.50592C43.7633 -2.87776 47.9974 1.18533 47.4495 7.40505C46.9365 13.3683 45.4259 27.4672 44.9477 31.9989C44.4663 36.5972 44.0958 38.0382 36.1089 36.4104C27.9416 34.7288 17.2598 32.6988 14.3082 32.1478C8.01884 30.881 9.71945 27.4292 12.2846 25.2219Z" fill="#74AE2C"/>
<path d="M63.4677 59.9787C64.3924 58.731 72.3159 48.749 75.6949 44.366C79.074 39.9831 83.9826 43.0423 84.8599 47.4632C85.6357 51.1431 90.9751 75.7054 91.827 79.6386C92.5268 82.8467 87.7797 83.3977 84.4228 81.0384C80.3344 78.1882 69.3612 70.6225 64.5824 67.1928C61.7797 65.2104 61.7322 62.3697 63.4708 59.9787H63.4677Z" fill="#AB1163"/>
</svg>
