<svg width="40" height="40" viewBox="0 0 40 40" fill="none" xmlns="http://www.w3.org/2000/svg">
<path fill-rule="evenodd" clip-rule="evenodd" d="M36.708 30.2135C37.8468 28.2617 38.3334 25.1146 38.3334 19.9952C38.3334 14.8961 37.8514 11.7673 36.7004 9.76322C35.547 7.68211 34.1789 7.02156 31.4639 6.86301C29.6104 6.73737 25.0039 6.6665 20.0045 6.6665C14.9944 6.6665 10.3858 6.73735 8.51842 6.86399C5.81861 7.02193 4.45026 7.68395 3.28663 9.77084C2.15239 11.768 1.66675 14.9121 1.66675 20.0138C1.66675 25.0866 2.15474 28.2465 3.2966 30.2371C4.4451 32.2971 5.79163 32.9512 8.51442 33.1424C10.4713 33.2569 15.3408 33.3332 20.0045 33.3332C24.6578 33.3332 29.5249 33.2569 31.4639 33.1437C34.2117 32.9512 35.558 32.2961 36.708 30.2135ZM31.2541 10.1897C32.9524 10.2889 33.2673 10.4416 33.8056 11.4159C34.5893 12.7732 35.0001 15.4294 35.0001 20.0138C35.0001 24.5636 34.5871 27.2344 33.8093 28.5682C33.2691 29.5455 32.9564 29.6977 31.2502 29.8172C29.415 29.9243 24.5951 29.9998 20.0045 29.9998C15.4036 29.9998 10.5813 29.9243 8.72847 29.816C7.04343 29.6975 6.72617 29.5434 6.19797 28.5962C5.41485 27.2307 5.00008 24.5449 5.00008 19.9952C5.00008 15.4482 5.41264 12.7771 6.19158 11.4055C6.72799 10.4436 7.04748 10.289 8.72857 10.1907C10.5085 10.07 15.0738 9.99984 20.0045 9.99984C24.9246 9.99984 29.4878 10.07 31.2541 10.1897ZM16.6667 14.9998L25.0001 19.9998L16.6667 24.9998V14.9998Z" fill="#198875"/>
</svg>
