<svg width="16" height="15" viewBox="0 0 16 15" fill="none" xmlns="http://www.w3.org/2000/svg">
<g clip-path="url(#clip0)">
<path d="M15.0379 14.9405V14.9399H15.0417V9.69915C15.0417 7.13535 14.4607 5.1604 11.3057 5.1604C9.78897 5.1604 8.77114 5.95109 8.35561 6.7007H8.31174V5.39975H5.32031V14.9399H8.43521V10.216C8.43521 8.97216 8.6834 7.76945 10.3048 7.76945C11.9023 7.76945 11.9261 9.18889 11.9261 10.2957V14.9405H15.0379Z" fill="#198875"/>
<path d="M0.248535 5.40063H3.36719V14.9408H0.248535V5.40063Z" fill="#198875"/>
<path d="M1.80626 0.651123C0.80912 0.651123 0 1.41979 0 2.36707C0 3.31436 0.80912 4.0991 1.80626 4.0991C2.8034 4.0991 3.61252 3.31436 3.61252 2.36707C3.6119 1.41979 2.80278 0.651123 1.80626 0.651123V0.651123Z" fill="#198875"/>
</g>
<defs>
<clipPath id="clip0">
<rect width="15.0417" height="14.2896" fill="white" transform="translate(0 0.651123)"/>
</clipPath>
</defs>
</svg>
